<svg xmlns="http://www.w3.org/2000/svg" xmlns:xlink="http://www.w3.org/1999/xlink" fill="none" version="1.1" width="16" height="16" viewBox="0 0 16 16"><defs><clipPath id="master_svg0_3132_7946"><rect x="0" y="0" width="16" height="16" rx="0"/></clipPath></defs><g clip-path="url(#master_svg0_3132_7946)"><g><path d="M8.66667,8.6666259765625L9.303329999999999,8.6666259765625C9.39929,8.6665859765625,9.49144,8.7041659765625,9.559999999999999,8.771295976562499C9.702,8.9112959765625,9.702,9.1379559765625,9.559999999999999,9.277955976562499L8.25667,10.561955976562501C8.113949999999999,10.7013559765625,7.88605,10.7013559765625,7.74333,10.561955976562501L6.44,9.277955976562499C6.3719,9.2112459765625,6.33347,9.119955976562501,6.33333,9.0246259765625C6.33333,8.8266259765625,6.496,8.6666259765625,6.69667,8.6666259765625L7.33333,8.6666259765625L7.33333,3.3332929765625C7.33333,2.9651029765625,7.63181,2.6666259765625,8,2.6666259765625C8.36819,2.6666259765625,8.66667,2.9651029765625,8.66667,3.3332929765625L8.66667,8.6666259765625ZM12.6667,11.9999559765625L12.6667,9.9999559765625C12.6667,9.6317659765625,12.9651,9.3332959765625,13.3333,9.3332959765625C13.7015,9.3332959765625,14,9.6317659765625,14,9.9999559765625L14,12.6666259765625C14,13.0348259765625,13.7015,13.3333259765625,13.3333,13.3333259765625L2.666667,13.3333259765625C2.298477,13.3333259765625,2,13.0348259765625,2,12.6666259765625L2,9.9999559765625C2,9.6317659765625,2.298477,9.3332959765625,2.666667,9.3332959765625C3.03486,9.3332959765625,3.33333,9.6317659765625,3.33333,9.9999559765625L3.33333,11.9999559765625L12.6667,11.9999559765625Z" fill="#ECECEC" fill-opacity="1"/></g></g></svg>