<svg xmlns="http://www.w3.org/2000/svg" xmlns:xlink="http://www.w3.org/1999/xlink" fill="none" version="1.1" width="16" height="16" viewBox="0 0 16 16"><defs><clipPath id="master_svg0_3132_7975"><rect x="0" y="0" width="16" height="16" rx="0"/></clipPath></defs><g clip-path="url(#master_svg0_3132_7975)"><g><path d="M8.00016609375,1.3333862304375C8.36835609375,1.3333862304375,8.66682609375,1.6318630234375,8.66682609375,2.0000530234375002C8.66682609375,2.3682440234374997,8.36835609375,2.6667240234375003,8.00016609375,2.6667240234375003C5.05464609375,2.6667240234375003,2.66682609375,5.054534023437499,2.66682609375,8.0000540234375C2.66682609375,10.9455740234375,5.05464609375,13.3333740234375,8.00016609375,13.3333740234375C10.94568609375,13.3333740234375,13.33349609375,10.9455740234375,13.33349609375,8.0000540234375C13.33349609375,7.6318640234375,13.63199609375,7.3333840234375,14.00019609375,7.3333840234375C14.36839609375,7.3333840234375,14.66679609375,7.6318640234375,14.66679609375,8.0000540234375C14.66679609375,11.6820740234375,11.68219609375,14.6666740234375,8.00016609375,14.6666740234375C4.3181660937499995,14.6666740234375,1.33349609375,11.6820740234375,1.33349609375,8.0000540234375C1.33349609375,4.3180540234375,4.3181660937499995,1.3333862304375,8.00016609375,1.3333862304375ZM13.54149609375,3.4013840234375L9.13816609375,7.8047240234375C8.87657609375,8.0573740234375,8.46076609375,8.0537640234375,8.20360609375,7.7966040234375C7.94644609375,7.5394440234375,7.94283609375,7.1236340234375,8.19549609375,6.8620540234375L12.59879609375,2.4587240234375L12.11219609375,1.9720530234375C11.96459609375,1.8265980234375,11.96279609375,1.5890490234375,12.10819609375,1.4413860234375C12.17819609375,1.3714866234375,12.27329609375,1.3325817874375,12.37219609375,1.3333862304375L14.27479609375,1.3473861234375C14.48149609375,1.3493861234375,14.65079609375,1.5180530234375,14.65279609375,1.7253860234375L14.66679609375,3.6280540234375C14.66869609375,3.8342740234375,14.50109609375,4.0019240234375,14.29479609375,4.0000540234374995C14.19469609375,3.9992540234375,14.09889609375,3.9590140234375,14.02819609375,3.8880540234375L13.54149609375,3.4013840234375Z" fill="#000000" fill-opacity="1" style="mix-blend-mode:passthrough"/></g></g></svg>