<svg xmlns="http://www.w3.org/2000/svg" xmlns:xlink="http://www.w3.org/1999/xlink" fill="none" version="1.1" width="12.000001907348633" height="12.000001907348633" viewBox="0 0 12.000001907348633 12.000001907348633"><g><path d="M4,2.66667L10.6667,2.66667C11.403,2.66667,12,3.26362,12,4L12,10.6667C12,11.403,11.403,12,10.6667,12L4,12C3.26362,12,2.66667,11.403,2.66667,10.6667L2.66667,4C2.66667,3.26362,3.26362,2.66667,4,2.66667ZM4,4L4,10.6667L10.6667,10.6667L10.6667,4L4,4ZM1.33333,7.33333C1.33333,7.70152,1.03486,8,0.666667,8C0.298477,8,1.52588e-7,7.70152,0,7.33333L0,1.33333C0,0.596954,0.596954,1.52588e-7,1.33333,0L7.33333,0C7.70152,1.52588e-7,8,0.298477,8,0.666667C8,1.03486,7.70152,1.33333,7.33333,1.33333L1.33333,1.33333L1.33333,7.33333Z" fill="#999999" fill-opacity="1"/></g></svg>