<svg xmlns="http://www.w3.org/2000/svg" xmlns:xlink="http://www.w3.org/1999/xlink" fill="none" version="1.1" width="144" height="144" viewBox="0 0 144 144"><g><g><rect x="0" y="0" width="144" height="144" rx="24" fill="#000000" fill-opacity="1"/></g><g><g><g><path d="M129.36,30.45285C128.67700000000002,29.85583,129.022,28.732898,129.921,28.620445L134.81900000000002,28.00826422C135.446,27.929914,136,28.418652,136,29.05033L136,33.94778C136,34.85005,134.937,35.33227,134.25799999999998,34.73812L129.36,30.45285ZM8,102.1854L8,49.5213C8,48.5416,8.359514,47.596000000000004,9.01036,46.8638L11.00003,44.6255C11.64462,43.9003,12.53079,43.4341,13.49353,43.3138L16,43.0005L122.22,29.723C123.352,29.58145,124.491,29.930320000000002,125.35,30.6818L134.63400000000001,38.8053C135.502,39.5648,136,40.6621,136,41.8156L136,94.4797C136,95.4594,135.64,96.4049,134.99,97.1371L133,99.3755C132.35500000000002,100.1007,131.469,100.5668,130.506,100.6872L104,104.0005L97.541,104.8079C96.5497,104.9318,95.5479,104.6803,94.7327,104.1029L85.2673,97.3981C84.4521,96.8207,83.4503,96.5692,82.459,96.6931L61.3148,99.3361C60.4611,99.4429,59.6645,99.822,59.0433,100.4173L48.9567,110.0837C48.3355,110.679,47.5389,111.0581,46.6852,111.1648L40,112.0005L24,114.0005L21.780099999999997,114.278C20.6477,114.4195,19.5088,114.0707,18.649900000000002,113.3192L9.36598,105.1957C8.497921999999999,104.4362,8,103.3389,8,102.1854ZM94,54.0005Q94,53.8532,94.0072,53.7061Q94.0145,53.559,94.0289,53.412400000000005Q94.0433,53.2658,94.0649,53.1201Q94.0865,52.9744,94.1153,52.829899999999995Q94.144,52.685500000000005,94.1798,52.5426Q94.2156,52.399699999999996,94.2584,52.2588Q94.3011,52.1178,94.3507,51.9791Q94.4004,51.8405,94.4567,51.7044Q94.5131,51.5683,94.5761,51.435199999999995Q94.639,51.302,94.7085,51.1721Q94.7779,51.0422,94.8536,50.9159Q94.9293,50.789500000000004,95.0112,50.667100000000005Q95.093,50.5446,95.1808,50.4263Q95.2685,50.308,95.3619,50.1941Q95.4554,50.0803,95.5543,49.9711Q95.6532,49.861999999999995,95.7574,49.7578Q95.8615,49.6537,95.9706,49.5548Q96.0798,49.4559,96.1936,49.3624Q96.3075,49.269,96.4258,49.181200000000004Q96.5441,49.0935,96.6666,49.011700000000005Q96.789,48.9298,96.9154,48.8541Q97.0417,48.778400000000005,97.1716,48.709Q97.3015,48.6395,97.4347,48.576499999999996Q97.5678,48.5136,97.7039,48.4572Q97.84,48.400800000000004,97.9787,48.3512Q98.1173,48.3016,98.2583,48.2588Q98.3992,48.2161,98.5421,48.1803Q98.685,48.1445,98.8295,48.1158Q98.9739,48.087,99.1196,48.0654Q99.2653,48.043800000000005,99.4119,48.029399999999995Q99.5585,48.0149,99.7056,48.0077Q99.8527,48.0005,100,48.0005Q100.1473,48.0005,100.2944,48.0077Q100.4415,48.0149,100.5881,48.029399999999995Q100.7347,48.043800000000005,100.8804,48.0654Q101.0261,48.087,101.1705,48.1158Q101.315,48.1445,101.4579,48.1803Q101.6008,48.2161,101.7417,48.2588Q101.8827,48.3016,102.0213,48.3512Q102.16,48.400800000000004,102.2961,48.4572Q102.4322,48.5136,102.5653,48.576499999999996Q102.6985,48.6395,102.8284,48.709Q102.9583,48.778400000000005,103.0846,48.8541Q103.2109,48.9298,103.3334,49.011700000000005Q103.4559,49.0935,103.5742,49.181200000000004Q103.6925,49.269,103.8064,49.3624Q103.9202,49.4559,104.0294,49.5548Q104.1385,49.6537,104.2426,49.7578Q104.3468,49.861999999999995,104.4457,49.9711Q104.5446,50.0803,104.6381,50.1941Q104.7315,50.308,104.8192,50.4263Q104.907,50.5446,104.9888,50.667100000000005Q105.0706,50.789500000000004,105.1464,50.9159Q105.2221,51.0422,105.2915,51.1721Q105.3609,51.302,105.4239,51.435199999999995Q105.4869,51.5683,105.5433,51.7044Q105.5996,51.8405,105.6493,51.9791Q105.6989,52.1178,105.7416,52.2588Q105.7844,52.399699999999996,105.8202,52.5426Q105.856,52.685500000000005,105.8847,52.829899999999995Q105.9134,52.9744,105.9351,53.1201Q105.9567,53.2658,105.9711,53.412400000000005Q105.9855,53.559,105.9928,53.7061Q106,53.8532,106,54.0005Q106,54.147800000000004,105.9928,54.2949Q105.9855,54.442,105.9711,54.5886Q105.9567,54.7352,105.9351,54.8809Q105.9134,55.0266,105.8847,55.171Q105.856,55.3155,105.8202,55.4584Q105.7844,55.6012,105.7416,55.7422Q105.6989,55.8831,105.6493,56.0218Q105.5996,56.1605,105.5433,56.2966Q105.4869,56.4327,105.4239,56.565799999999996Q105.3609,56.699,105.2915,56.828900000000004Q105.2221,56.9588,105.1464,57.0851Q105.0706,57.2114,104.9888,57.3339Q104.907,57.4564,104.8192,57.5747Q104.7315,57.693,104.6381,57.806799999999996Q104.5446,57.9207,104.4457,58.0298Q104.3468,58.138999999999996,104.2426,58.2431Q104.1385,58.347300000000004,104.0294,58.446200000000005Q103.9202,58.545100000000005,103.8064,58.6386Q103.6925,58.732,103.5742,58.8197Q103.4559,58.9075,103.3334,58.9893Q103.2109,59.0711,103.0846,59.1469Q102.9583,59.2226,102.8284,59.292Q102.6985,59.3614,102.5653,59.4244Q102.4322,59.4874,102.2961,59.543800000000005Q102.16,59.6001,102.0213,59.649699999999996Q101.8827,59.6994,101.7417,59.7421Q101.6008,59.7849,101.4579,59.8207Q101.315,59.8565,101.1705,59.8852Q101.0261,59.9139,100.8804,59.935500000000005Q100.7347,59.9572,100.5881,59.971599999999995Q100.4415,59.986000000000004,100.2944,59.993300000000005Q100.1473,60.0005,100,60.0005Q99.8527,60.0005,99.7056,59.993300000000005Q99.5585,59.986000000000004,99.4119,59.971599999999995Q99.2653,59.9572,99.1196,59.935500000000005Q98.9739,59.9139,98.8295,59.8852Q98.685,59.8565,98.5421,59.8207Q98.3992,59.7849,98.2583,59.7421Q98.1173,59.6994,97.9787,59.649699999999996Q97.84,59.6001,97.7039,59.543800000000005Q97.5678,59.4874,97.4347,59.4244Q97.3015,59.3614,97.1716,59.292Q97.0417,59.2226,96.9154,59.1469Q96.789,59.0711,96.6666,58.9893Q96.5441,58.9075,96.4258,58.8197Q96.3075,58.732,96.1936,58.6386Q96.0798,58.545100000000005,95.9706,58.446200000000005Q95.8615,58.347300000000004,95.7574,58.2431Q95.6532,58.138999999999996,95.5543,58.0298Q95.4554,57.9207,95.3619,57.806799999999996Q95.2685,57.693,95.1808,57.5747Q95.093,57.4564,95.0112,57.3339Q94.9293,57.2114,94.8536,57.0851Q94.7779,56.9588,94.7085,56.828900000000004Q94.639,56.699,94.5761,56.565799999999996Q94.5131,56.4327,94.4567,56.2966Q94.4004,56.1605,94.3507,56.0218Q94.3011,55.8831,94.2584,55.7422Q94.2156,55.6012,94.1798,55.4584Q94.144,55.3155,94.1153,55.171Q94.0865,55.0266,94.0649,54.8809Q94.0433,54.7352,94.0289,54.5886Q94.0145,54.442,94.0072,54.2949Q94,54.147800000000004,94,54.0005ZM38,59.5316L38,68.0005L29.5039,69.0625C27.5021,69.3127,26,71.01429999999999,26,73.0316L26,76.96940000000001C26,79.3754,28.1087,81.23689999999999,30.4961,80.9385L38,80.0005L38,87.46940000000001C38,89.8754,40.1087,91.73689999999999,42.4961,91.4385L46.4961,90.9385C48.4979,90.6883,50,88.9867,50,86.96940000000001L50,78.5005L58.4961,77.4385C60.4979,77.1883,62,75.4867,62,73.46940000000001L62,69.5316C62,67.12559999999999,59.8913,65.2641,57.5039,65.5625L50,66.5005L50,59.0316C50,56.6256,47.8913,54.7641,45.5039,55.0625L41.5039,55.5625C39.5021,55.8127,38,57.5143,38,59.5316ZM106,65.0005Q106,64.8532,106.0072,64.70609999999999Q106.0144,64.559,106.0289,64.41239999999999Q106.0433,64.2658,106.0649,64.12010000000001Q106.0865,63.9744,106.1153,63.8299Q106.144,63.6855,106.1798,63.5426Q106.2156,63.3997,106.2584,63.2588Q106.3011,63.1178,106.3507,62.9791Q106.4003,62.8405,106.4567,62.7044Q106.5131,62.5683,106.576,62.4352Q106.639,62.302,106.7085,62.1721Q106.7779,62.0422,106.8536,61.9159Q106.9293,61.7895,107.0112,61.6671Q107.093,61.5446,107.1807,61.4263Q107.2685,61.308,107.3619,61.1941Q107.4554,61.0803,107.5543,60.9711Q107.6532,60.862,107.7574,60.7578Q107.8615,60.6537,107.9706,60.5548Q108.08,60.4559,108.194,60.3624Q108.307,60.269,108.426,60.1812Q108.544,60.0935,108.667,60.0117Q108.789,59.9298,108.915,59.8541Q109.042,59.778400000000005,109.172,59.709Q109.301,59.6395,109.435,59.576499999999996Q109.568,59.5136,109.704,59.4572Q109.84,59.400800000000004,109.979,59.3512Q110.117,59.3016,110.258,59.2588Q110.399,59.2161,110.542,59.1803Q110.685,59.1445,110.829,59.1158Q110.974,59.087,111.12,59.0654Q111.265,59.043800000000005,111.412,59.029399999999995Q111.558,59.0149,111.706,59.0077Q111.853,59.0005,112,59.0005Q112.147,59.0005,112.294,59.0077Q112.442,59.0149,112.588,59.029399999999995Q112.735,59.043800000000005,112.88,59.0654Q113.026,59.087,113.171,59.1158Q113.315,59.1445,113.458,59.1803Q113.601,59.2161,113.742,59.2588Q113.883,59.3016,114.021,59.3512Q114.16,59.400800000000004,114.296,59.4572Q114.432,59.5136,114.565,59.576499999999996Q114.698,59.6395,114.828,59.709Q114.958,59.778400000000005,115.085,59.8541Q115.211,59.9298,115.333,60.0117Q115.456,60.0935,115.574,60.1812Q115.692,60.269,115.806,60.3624Q115.92,60.4559,116.029,60.5548Q116.138,60.6537,116.243,60.7578Q116.347,60.862,116.446,60.9711Q116.545,61.0803,116.638,61.1941Q116.731,61.308,116.819,61.4263Q116.907,61.5446,116.989,61.6671Q117.071,61.7895,117.146,61.9159Q117.222,62.0422,117.292,62.1721Q117.361,62.302,117.424,62.4352Q117.487,62.5683,117.543,62.7044Q117.6,62.8405,117.649,62.9791Q117.699,63.1178,117.742,63.2588Q117.784,63.3997,117.82,63.5426Q117.856,63.6855,117.885,63.8299Q117.913,63.9744,117.935,64.12010000000001Q117.957,64.2658,117.971,64.41239999999999Q117.986,64.559,117.993,64.70609999999999Q118,64.8532,118,65.0005Q118,65.14779999999999,117.993,65.2949Q117.986,65.44200000000001,117.971,65.5886Q117.957,65.73519999999999,117.935,65.8809Q117.913,66.0266,117.885,66.17099999999999Q117.856,66.3155,117.82,66.4584Q117.784,66.6012,117.742,66.7422Q117.699,66.8831,117.649,67.0218Q117.6,67.1605,117.543,67.2966Q117.487,67.4327,117.424,67.5658Q117.361,67.699,117.292,67.8289Q117.222,67.9588,117.146,68.0851Q117.071,68.2114,116.989,68.3339Q116.907,68.4564,116.819,68.5747Q116.731,68.693,116.638,68.80680000000001Q116.545,68.9207,116.446,69.0298Q116.347,69.13900000000001,116.243,69.2431Q116.138,69.34729999999999,116.029,69.4462Q115.92,69.54509999999999,115.806,69.6385Q115.692,69.732,115.574,69.8197Q115.456,69.9075,115.333,69.9893Q115.211,70.0711,115.085,70.1469Q114.958,70.2226,114.828,70.292Q114.698,70.3614,114.565,70.42439999999999Q114.432,70.48740000000001,114.296,70.5438Q114.16,70.6001,114.021,70.6497Q113.883,70.6994,113.742,70.7421Q113.601,70.7849,113.458,70.8207Q113.315,70.8565,113.171,70.8852Q113.026,70.9139,112.88,70.93549999999999Q112.735,70.9572,112.588,70.9716Q112.442,70.98599999999999,112.294,70.9933Q112.147,71.0005,112,71.0005Q111.853,71.0005,111.706,70.9933Q111.558,70.98599999999999,111.412,70.9716Q111.265,70.9572,111.12,70.93549999999999Q110.974,70.9139,110.829,70.8852Q110.685,70.8565,110.542,70.8207Q110.399,70.7849,110.258,70.7421Q110.117,70.6994,109.979,70.6497Q109.84,70.6001,109.704,70.5438Q109.568,70.48740000000001,109.435,70.42439999999999Q109.302,70.3614,109.172,70.292Q109.042,70.2226,108.915,70.1469Q108.789,70.0711,108.667,69.9893Q108.544,69.9075,108.426,69.8197Q108.307,69.732,108.194,69.6385Q108.08,69.54509999999999,107.9706,69.4462Q107.8615,69.34729999999999,107.7574,69.2431Q107.6532,69.13900000000001,107.5543,69.0298Q107.4554,68.9207,107.3619,68.80680000000001Q107.2685,68.693,107.1807,68.5747Q107.093,68.4564,107.0112,68.3339Q106.9293,68.2114,106.8536,68.0851Q106.7779,67.9588,106.7085,67.8289Q106.639,67.699,106.5761,67.5658Q106.5131,67.4327,106.4567,67.2966Q106.4003,67.1605,106.3507,67.0218Q106.3011,66.8831,106.2584,66.7422Q106.2156,66.6012,106.1798,66.4584Q106.144,66.3155,106.1153,66.17099999999999Q106.0865,66.0266,106.0649,65.8809Q106.0433,65.73519999999999,106.0289,65.5886Q106.0144,65.44200000000001,106.0072,65.2949Q106,65.14779999999999,106,65.0005ZM88,62.0005Q87.8527,62.0005,87.7056,62.0077Q87.5585,62.0149,87.4119,62.0294Q87.2653,62.0438,87.1196,62.0654Q86.9739,62.087,86.8295,62.1158Q86.685,62.1445,86.5421,62.1803Q86.3992,62.2161,86.2583,62.2588Q86.1173,62.3016,85.9786,62.3512Q85.84,62.4008,85.7039,62.4572Q85.5678,62.5136,85.4347,62.5765Q85.3015,62.6395,85.1716,62.709Q85.0417,62.7784,84.9154,62.8541Q84.789,62.9298,84.6666,63.0117Q84.5441,63.0935,84.4258,63.1812Q84.3075,63.269,84.1936,63.3624Q84.0798,63.4559,83.9706,63.5548Q83.8615,63.6537,83.7574,63.7578Q83.6532,63.862,83.5543,63.9711Q83.4554,64.0803,83.3619,64.19409999999999Q83.2685,64.30799999999999,83.1807,64.4263Q83.093,64.5446,83.0112,64.6671Q82.9293,64.7895,82.8536,64.9159Q82.7779,65.04220000000001,82.7085,65.1721Q82.639,65.30199999999999,82.5761,65.43520000000001Q82.5131,65.5683,82.4567,65.70439999999999Q82.4003,65.84049999999999,82.3507,65.9791Q82.3011,66.1178,82.2584,66.25880000000001Q82.2156,66.3997,82.1798,66.5426Q82.144,66.68549999999999,82.1153,66.82990000000001Q82.0865,66.9744,82.0649,67.12010000000001Q82.0433,67.2658,82.0289,67.41239999999999Q82.0145,67.559,82.0072,67.70609999999999Q82,67.8532,82,68.0005Q82,68.14779999999999,82.0072,68.2949Q82.0145,68.44200000000001,82.0289,68.5886Q82.0433,68.73519999999999,82.0649,68.8809Q82.0865,69.0266,82.1153,69.17099999999999Q82.144,69.3155,82.1798,69.4584Q82.2156,69.6012,82.2584,69.7422Q82.3011,69.8831,82.3507,70.0218Q82.4003,70.1605,82.4567,70.2966Q82.5131,70.4327,82.5761,70.5658Q82.639,70.699,82.7085,70.8289Q82.7779,70.9588,82.8536,71.0851Q82.9293,71.2114,83.0112,71.3339Q83.093,71.4564,83.1807,71.5747Q83.2685,71.693,83.3619,71.80680000000001Q83.4554,71.9207,83.5543,72.0298Q83.6532,72.13900000000001,83.7574,72.2431Q83.8615,72.34729999999999,83.9706,72.4462Q84.0798,72.54509999999999,84.1936,72.6385Q84.3075,72.732,84.4258,72.8197Q84.5441,72.9075,84.6666,72.9893Q84.789,73.0711,84.9154,73.1469Q85.0417,73.2226,85.1716,73.292Q85.3015,73.3614,85.4347,73.42439999999999Q85.5678,73.48740000000001,85.7039,73.5438Q85.84,73.6001,85.9786,73.6497Q86.1173,73.6994,86.2583,73.7421Q86.3992,73.7849,86.5421,73.8207Q86.685,73.8565,86.8295,73.8852Q86.9739,73.9139,87.1196,73.93549999999999Q87.2653,73.9572,87.4119,73.9716Q87.5585,73.98599999999999,87.7056,73.9933Q87.8527,74.0005,88,74.0005Q88.1473,74.0005,88.2944,73.9933Q88.4415,73.98599999999999,88.5881,73.9716Q88.7347,73.9572,88.8804,73.93549999999999Q89.0261,73.9139,89.1705,73.8852Q89.315,73.8565,89.4579,73.8207Q89.6007,73.7849,89.7417,73.7421Q89.8826,73.6994,90.0213,73.6497Q90.16,73.6001,90.2961,73.5438Q90.4322,73.48740000000001,90.5653,73.42439999999999Q90.6985,73.3614,90.8284,73.292Q90.9583,73.2226,91.0846,73.1469Q91.2109,73.0711,91.3334,72.9893Q91.4559,72.9075,91.5742,72.8197Q91.6925,72.732,91.8064,72.6385Q91.9202,72.54509999999999,92.0294,72.4462Q92.1385,72.34729999999999,92.2426,72.2431Q92.3468,72.13900000000001,92.4457,72.0298Q92.5446,71.9207,92.6381,71.80680000000001Q92.7315,71.693,92.8192,71.5747Q92.907,71.4564,92.9888,71.3339Q93.0706,71.2114,93.1464,71.0851Q93.2221,70.9588,93.2915,70.8289Q93.3609,70.699,93.4239,70.5658Q93.4869,70.4327,93.5433,70.2966Q93.5996,70.1605,93.6493,70.0218Q93.6989,69.8831,93.7416,69.7422Q93.7844,69.6012,93.8202,69.4584Q93.856,69.3155,93.8847,69.17099999999999Q93.9135,69.0266,93.9351,68.8809Q93.9567,68.73519999999999,93.9711,68.5886Q93.9855,68.44200000000001,93.9928,68.2949Q94,68.14779999999999,94,68.0005Q94,67.8532,93.9928,67.70609999999999Q93.9855,67.559,93.9711,67.41239999999999Q93.9567,67.2658,93.9351,67.12010000000001Q93.9135,66.9744,93.8847,66.82990000000001Q93.856,66.68549999999999,93.8202,66.5426Q93.7844,66.3997,93.7416,66.25880000000001Q93.6989,66.1178,93.6493,65.9791Q93.5996,65.84049999999999,93.5433,65.70439999999999Q93.4869,65.5683,93.4239,65.43520000000001Q93.3609,65.30199999999999,93.2915,65.1721Q93.2221,65.04220000000001,93.1464,64.9159Q93.0706,64.7895,92.9888,64.6671Q92.907,64.5446,92.8192,64.4263Q92.7315,64.30799999999999,92.6381,64.19409999999999Q92.5446,64.0803,92.4457,63.9711Q92.3468,63.862,92.2426,63.7578Q92.1385,63.6537,92.0294,63.5548Q91.9202,63.4559,91.8064,63.3624Q91.6925,63.269,91.5742,63.1812Q91.4559,63.0935,91.3334,63.0117Q91.2109,62.9298,91.0846,62.8541Q90.9583,62.7784,90.8284,62.709Q90.6985,62.6395,90.5653,62.5765Q90.4322,62.5136,90.2961,62.4572Q90.16,62.4008,90.0213,62.3512Q89.8826,62.3016,89.7417,62.2588Q89.6007,62.2161,89.4579,62.1803Q89.315,62.1445,89.1705,62.1158Q89.0261,62.087,88.8804,62.0654Q88.7347,62.0438,88.5881,62.0294Q88.4415,62.0149,88.2944,62.0077Q88.1473,62.0005,88,62.0005ZM100,72.0005Q99.8527,72.0005,99.7056,72.0077Q99.5585,72.0149,99.4119,72.02940000000001Q99.2653,72.0438,99.1196,72.0654Q98.9739,72.087,98.8295,72.11580000000001Q98.685,72.1445,98.5421,72.1803Q98.3992,72.2161,98.2583,72.25880000000001Q98.1173,72.30160000000001,97.9787,72.3512Q97.84,72.4008,97.7039,72.4572Q97.5678,72.5136,97.4347,72.57650000000001Q97.3015,72.6395,97.1716,72.709Q97.0417,72.7784,96.9154,72.8541Q96.789,72.9298,96.6666,73.01169999999999Q96.5441,73.0935,96.4258,73.18119999999999Q96.3075,73.269,96.1936,73.36240000000001Q96.0798,73.4559,95.9706,73.5548Q95.8615,73.6537,95.7574,73.7578Q95.6532,73.862,95.5543,73.9711Q95.4554,74.0803,95.3619,74.19409999999999Q95.2685,74.30799999999999,95.1808,74.4263Q95.093,74.5446,95.0112,74.6671Q94.9293,74.7895,94.8536,74.9159Q94.7779,75.04220000000001,94.7085,75.1721Q94.639,75.30199999999999,94.5761,75.43520000000001Q94.5131,75.5683,94.4567,75.70439999999999Q94.4004,75.84049999999999,94.3507,75.9791Q94.3011,76.1178,94.2584,76.25880000000001Q94.2156,76.3997,94.1798,76.5426Q94.144,76.68549999999999,94.1153,76.82990000000001Q94.0865,76.9744,94.0649,77.12010000000001Q94.0433,77.2658,94.0289,77.41239999999999Q94.0145,77.559,94.0072,77.70609999999999Q94,77.8532,94,78.0005Q94,78.14779999999999,94.0072,78.2949Q94.0145,78.44200000000001,94.0289,78.5886Q94.0433,78.73519999999999,94.0649,78.8809Q94.0865,79.0266,94.1153,79.17099999999999Q94.144,79.3155,94.1798,79.4584Q94.2156,79.6012,94.2584,79.7422Q94.3011,79.8831,94.3507,80.0218Q94.4004,80.1605,94.4567,80.2966Q94.5131,80.4327,94.5761,80.5658Q94.639,80.699,94.7085,80.8289Q94.7779,80.9588,94.8536,81.0851Q94.9293,81.2114,95.0112,81.3339Q95.093,81.4564,95.1808,81.5747Q95.2685,81.693,95.3619,81.8069Q95.4554,81.9207,95.5543,82.0298Q95.6532,82.13900000000001,95.7574,82.2431Q95.8615,82.34729999999999,95.9706,82.4462Q96.0798,82.54509999999999,96.1936,82.6386Q96.3075,82.732,96.4258,82.8197Q96.5441,82.9075,96.6666,82.9893Q96.789,83.0711,96.9154,83.1469Q97.0417,83.2226,97.1716,83.292Q97.3015,83.3614,97.4347,83.42439999999999Q97.5678,83.48740000000001,97.7039,83.5438Q97.84,83.6001,97.9787,83.6497Q98.1173,83.6994,98.2583,83.7421Q98.3992,83.7849,98.5421,83.8207Q98.685,83.8565,98.8295,83.8852Q98.9739,83.9139,99.1196,83.93549999999999Q99.2653,83.9572,99.4119,83.9716Q99.5585,83.98599999999999,99.7056,83.9933Q99.8527,84.0005,100,84.0005Q100.1473,84.0005,100.2944,83.9933Q100.4415,83.98599999999999,100.5881,83.9716Q100.7347,83.9572,100.8804,83.93549999999999Q101.0261,83.9139,101.1705,83.8852Q101.315,83.8565,101.4579,83.8207Q101.6008,83.7849,101.7417,83.7421Q101.8827,83.6994,102.0213,83.6497Q102.16,83.6001,102.2961,83.5438Q102.4322,83.48740000000001,102.5653,83.42439999999999Q102.6985,83.3614,102.8284,83.292Q102.9583,83.2226,103.0846,83.1469Q103.2109,83.0711,103.3334,82.9893Q103.4559,82.9075,103.5742,82.8197Q103.6925,82.732,103.8064,82.6385Q103.9202,82.54509999999999,104.0294,82.4462Q104.1385,82.34729999999999,104.2426,82.2431Q104.3468,82.13900000000001,104.4457,82.0298Q104.5446,81.9207,104.6381,81.80680000000001Q104.7315,81.693,104.8192,81.5747Q104.907,81.4564,104.9888,81.3339Q105.0706,81.2114,105.1464,81.0851Q105.2221,80.9588,105.2915,80.8289Q105.3609,80.699,105.4239,80.5658Q105.4869,80.4327,105.5433,80.2966Q105.5996,80.1605,105.6493,80.0218Q105.6989,79.8831,105.7416,79.7422Q105.7844,79.6012,105.8202,79.4584Q105.856,79.3155,105.8847,79.17099999999999Q105.9134,79.0266,105.9351,78.8809Q105.9567,78.73519999999999,105.9711,78.5886Q105.9855,78.44200000000001,105.9928,78.2949Q106,78.14779999999999,106,78.0005Q106,77.8532,105.9928,77.70609999999999Q105.9855,77.559,105.9711,77.41239999999999Q105.9567,77.2658,105.9351,77.12010000000001Q105.9134,76.9744,105.8847,76.82990000000001Q105.856,76.68549999999999,105.8202,76.5426Q105.7844,76.3997,105.7416,76.25880000000001Q105.6989,76.1178,105.6493,75.9791Q105.5996,75.84049999999999,105.5433,75.70439999999999Q105.4869,75.5683,105.4239,75.43520000000001Q105.3609,75.30199999999999,105.2915,75.1721Q105.2221,75.04220000000001,105.1464,74.9159Q105.0706,74.7895,104.9888,74.6671Q104.907,74.5446,104.8192,74.4263Q104.7315,74.30799999999999,104.6381,74.19409999999999Q104.5446,74.0803,104.4457,73.9711Q104.3468,73.862,104.2426,73.7578Q104.1385,73.6537,104.0294,73.5548Q103.9202,73.4559,103.8064,73.36240000000001Q103.6925,73.269,103.5742,73.18119999999999Q103.4559,73.0935,103.3334,73.01169999999999Q103.2109,72.9298,103.0846,72.8541Q102.9583,72.7784,102.8284,72.709Q102.6985,72.6395,102.5653,72.57650000000001Q102.4322,72.5136,102.2961,72.4572Q102.16,72.4008,102.0213,72.3512Q101.8827,72.30160000000001,101.7417,72.25880000000001Q101.6008,72.2161,101.4579,72.1803Q101.315,72.1445,101.1705,72.11580000000001Q101.0261,72.087,100.8804,72.0654Q100.7347,72.0438,100.5881,72.02940000000001Q100.4415,72.0149,100.2944,72.0077Q100.1473,72.0005,100,72.0005ZM8,114.9497L8,110.0522C8,109.1499,9.062850000000001,108.6677,9.74197,109.2619L14.6401,113.5471C15.3225,114.1442,14.97849,115.2671,14.07873,115.3796L9.1806,115.9917C8.553712,116.0701,8,115.5813,8,114.9497Z" fill-rule="evenodd" fill="#000000" fill-opacity="1"/></g></g><g><g><path d="M129.36,30.45285C128.67700000000002,29.85583,129.022,28.732898,129.921,28.620445L134.81900000000002,28.00826422C135.446,27.929914,136,28.418652,136,29.05033L136,33.94778C136,34.85005,134.937,35.33227,134.25799999999998,34.73812L129.36,30.45285ZM8,102.1854L8,49.5213C8,48.5416,8.359514,47.596000000000004,9.01036,46.8638L11.00003,44.6255C11.64462,43.9003,12.53079,43.4341,13.49353,43.3138L16,43.0005L122.22,29.723C123.352,29.58145,124.491,29.930320000000002,125.35,30.6818L134.63400000000001,38.8053C135.502,39.5648,136,40.6621,136,41.8156L136,94.4797C136,95.4594,135.64,96.4049,134.99,97.1371L133,99.3755C132.35500000000002,100.1007,131.469,100.5668,130.506,100.6872L104,104.0005L97.541,104.8079C96.5497,104.9318,95.5479,104.6803,94.7327,104.1029L85.2673,97.3981C84.4521,96.8207,83.4503,96.5692,82.459,96.6931L61.3148,99.3361C60.4611,99.4429,59.6645,99.822,59.0433,100.4173L48.9567,110.0837C48.3355,110.679,47.5389,111.0581,46.6852,111.1648L40,112.0005L24,114.0005L21.780099999999997,114.278C20.6477,114.4195,19.5088,114.0707,18.649900000000002,113.3192L9.36598,105.1957C8.497921999999999,104.4362,8,103.3389,8,102.1854ZM94,54.0005Q94,53.8532,94.0072,53.7061Q94.0145,53.559,94.0289,53.412400000000005Q94.0433,53.2658,94.0649,53.1201Q94.0865,52.9744,94.1153,52.829899999999995Q94.144,52.685500000000005,94.1798,52.5426Q94.2156,52.399699999999996,94.2584,52.2588Q94.3011,52.1178,94.3507,51.9791Q94.4004,51.8405,94.4567,51.7044Q94.5131,51.5683,94.5761,51.435199999999995Q94.639,51.302,94.7085,51.1721Q94.7779,51.0422,94.8536,50.9159Q94.9293,50.789500000000004,95.0112,50.667100000000005Q95.093,50.5446,95.1808,50.4263Q95.2685,50.308,95.3619,50.1941Q95.4554,50.0803,95.5543,49.9711Q95.6532,49.861999999999995,95.7574,49.7578Q95.8615,49.6537,95.9706,49.5548Q96.0798,49.4559,96.1936,49.3624Q96.3075,49.269,96.4258,49.181200000000004Q96.5441,49.0935,96.6666,49.011700000000005Q96.789,48.9298,96.9154,48.8541Q97.0417,48.778400000000005,97.1716,48.709Q97.3015,48.6395,97.4347,48.576499999999996Q97.5678,48.5136,97.7039,48.4572Q97.84,48.400800000000004,97.9787,48.3512Q98.1173,48.3016,98.2583,48.2588Q98.3992,48.2161,98.5421,48.1803Q98.685,48.1445,98.8295,48.1158Q98.9739,48.087,99.1196,48.0654Q99.2653,48.043800000000005,99.4119,48.029399999999995Q99.5585,48.0149,99.7056,48.0077Q99.8527,48.0005,100,48.0005Q100.1473,48.0005,100.2944,48.0077Q100.4415,48.0149,100.5881,48.029399999999995Q100.7347,48.043800000000005,100.8804,48.0654Q101.0261,48.087,101.1705,48.1158Q101.315,48.1445,101.4579,48.1803Q101.6008,48.2161,101.7417,48.2588Q101.8827,48.3016,102.0213,48.3512Q102.16,48.400800000000004,102.2961,48.4572Q102.4322,48.5136,102.5653,48.576499999999996Q102.6985,48.6395,102.8284,48.709Q102.9583,48.778400000000005,103.0846,48.8541Q103.2109,48.9298,103.3334,49.011700000000005Q103.4559,49.0935,103.5742,49.181200000000004Q103.6925,49.269,103.8064,49.3624Q103.9202,49.4559,104.0294,49.5548Q104.1385,49.6537,104.2426,49.7578Q104.3468,49.861999999999995,104.4457,49.9711Q104.5446,50.0803,104.6381,50.1941Q104.7315,50.308,104.8192,50.4263Q104.907,50.5446,104.9888,50.667100000000005Q105.0706,50.789500000000004,105.1464,50.9159Q105.2221,51.0422,105.2915,51.1721Q105.3609,51.302,105.4239,51.435199999999995Q105.4869,51.5683,105.5433,51.7044Q105.5996,51.8405,105.6493,51.9791Q105.6989,52.1178,105.7416,52.2588Q105.7844,52.399699999999996,105.8202,52.5426Q105.856,52.685500000000005,105.8847,52.829899999999995Q105.9134,52.9744,105.9351,53.1201Q105.9567,53.2658,105.9711,53.412400000000005Q105.9855,53.559,105.9928,53.7061Q106,53.8532,106,54.0005Q106,54.147800000000004,105.9928,54.2949Q105.9855,54.442,105.9711,54.5886Q105.9567,54.7352,105.9351,54.8809Q105.9134,55.0266,105.8847,55.171Q105.856,55.3155,105.8202,55.4584Q105.7844,55.6012,105.7416,55.7422Q105.6989,55.8831,105.6493,56.0218Q105.5996,56.1605,105.5433,56.2966Q105.4869,56.4327,105.4239,56.565799999999996Q105.3609,56.699,105.2915,56.828900000000004Q105.2221,56.9588,105.1464,57.0851Q105.0706,57.2114,104.9888,57.3339Q104.907,57.4564,104.8192,57.5747Q104.7315,57.693,104.6381,57.806799999999996Q104.5446,57.9207,104.4457,58.0298Q104.3468,58.138999999999996,104.2426,58.2431Q104.1385,58.347300000000004,104.0294,58.446200000000005Q103.9202,58.545100000000005,103.8064,58.6386Q103.6925,58.732,103.5742,58.8197Q103.4559,58.9075,103.3334,58.9893Q103.2109,59.0711,103.0846,59.1469Q102.9583,59.2226,102.8284,59.292Q102.6985,59.3614,102.5653,59.4244Q102.4322,59.4874,102.2961,59.543800000000005Q102.16,59.6001,102.0213,59.649699999999996Q101.8827,59.6994,101.7417,59.7421Q101.6008,59.7849,101.4579,59.8207Q101.315,59.8565,101.1705,59.8852Q101.0261,59.9139,100.8804,59.935500000000005Q100.7347,59.9572,100.5881,59.971599999999995Q100.4415,59.986000000000004,100.2944,59.993300000000005Q100.1473,60.0005,100,60.0005Q99.8527,60.0005,99.7056,59.993300000000005Q99.5585,59.986000000000004,99.4119,59.971599999999995Q99.2653,59.9572,99.1196,59.935500000000005Q98.9739,59.9139,98.8295,59.8852Q98.685,59.8565,98.5421,59.8207Q98.3992,59.7849,98.2583,59.7421Q98.1173,59.6994,97.9787,59.649699999999996Q97.84,59.6001,97.7039,59.543800000000005Q97.5678,59.4874,97.4347,59.4244Q97.3015,59.3614,97.1716,59.292Q97.0417,59.2226,96.9154,59.1469Q96.789,59.0711,96.6666,58.9893Q96.5441,58.9075,96.4258,58.8197Q96.3075,58.732,96.1936,58.6386Q96.0798,58.545100000000005,95.9706,58.446200000000005Q95.8615,58.347300000000004,95.7574,58.2431Q95.6532,58.138999999999996,95.5543,58.0298Q95.4554,57.9207,95.3619,57.806799999999996Q95.2685,57.693,95.1808,57.5747Q95.093,57.4564,95.0112,57.3339Q94.9293,57.2114,94.8536,57.0851Q94.7779,56.9588,94.7085,56.828900000000004Q94.639,56.699,94.5761,56.565799999999996Q94.5131,56.4327,94.4567,56.2966Q94.4004,56.1605,94.3507,56.0218Q94.3011,55.8831,94.2584,55.7422Q94.2156,55.6012,94.1798,55.4584Q94.144,55.3155,94.1153,55.171Q94.0865,55.0266,94.0649,54.8809Q94.0433,54.7352,94.0289,54.5886Q94.0145,54.442,94.0072,54.2949Q94,54.147800000000004,94,54.0005ZM38,59.5316L38,68.0005L29.5039,69.0625C27.5021,69.3127,26,71.01429999999999,26,73.0316L26,76.96940000000001C26,79.3754,28.1087,81.23689999999999,30.4961,80.9385L38,80.0005L38,87.46940000000001C38,89.8754,40.1087,91.73689999999999,42.4961,91.4385L46.4961,90.9385C48.4979,90.6883,50,88.9867,50,86.96940000000001L50,78.5005L58.4961,77.4385C60.4979,77.1883,62,75.4867,62,73.46940000000001L62,69.5316C62,67.12559999999999,59.8913,65.2641,57.5039,65.5625L50,66.5005L50,59.0316C50,56.6256,47.8913,54.7641,45.5039,55.0625L41.5039,55.5625C39.5021,55.8127,38,57.5143,38,59.5316ZM106,65.0005Q106,64.8532,106.0072,64.70609999999999Q106.0144,64.559,106.0289,64.41239999999999Q106.0433,64.2658,106.0649,64.12010000000001Q106.0865,63.9744,106.1153,63.8299Q106.144,63.6855,106.1798,63.5426Q106.2156,63.3997,106.2584,63.2588Q106.3011,63.1178,106.3507,62.9791Q106.4003,62.8405,106.4567,62.7044Q106.5131,62.5683,106.576,62.4352Q106.639,62.302,106.7085,62.1721Q106.7779,62.0422,106.8536,61.9159Q106.9293,61.7895,107.0112,61.6671Q107.093,61.5446,107.1807,61.4263Q107.2685,61.308,107.3619,61.1941Q107.4554,61.0803,107.5543,60.9711Q107.6532,60.862,107.7574,60.7578Q107.8615,60.6537,107.9706,60.5548Q108.08,60.4559,108.194,60.3624Q108.307,60.269,108.426,60.1812Q108.544,60.0935,108.667,60.0117Q108.789,59.9298,108.915,59.8541Q109.042,59.778400000000005,109.172,59.709Q109.301,59.6395,109.435,59.576499999999996Q109.568,59.5136,109.704,59.4572Q109.84,59.400800000000004,109.979,59.3512Q110.117,59.3016,110.258,59.2588Q110.399,59.2161,110.542,59.1803Q110.685,59.1445,110.829,59.1158Q110.974,59.087,111.12,59.0654Q111.265,59.043800000000005,111.412,59.029399999999995Q111.558,59.0149,111.706,59.0077Q111.853,59.0005,112,59.0005Q112.147,59.0005,112.294,59.0077Q112.442,59.0149,112.588,59.029399999999995Q112.735,59.043800000000005,112.88,59.0654Q113.026,59.087,113.171,59.1158Q113.315,59.1445,113.458,59.1803Q113.601,59.2161,113.742,59.2588Q113.883,59.3016,114.021,59.3512Q114.16,59.400800000000004,114.296,59.4572Q114.432,59.5136,114.565,59.576499999999996Q114.698,59.6395,114.828,59.709Q114.958,59.778400000000005,115.085,59.8541Q115.211,59.9298,115.333,60.0117Q115.456,60.0935,115.574,60.1812Q115.692,60.269,115.806,60.3624Q115.92,60.4559,116.029,60.5548Q116.138,60.6537,116.243,60.7578Q116.347,60.862,116.446,60.9711Q116.545,61.0803,116.638,61.1941Q116.731,61.308,116.819,61.4263Q116.907,61.5446,116.989,61.6671Q117.071,61.7895,117.146,61.9159Q117.222,62.0422,117.292,62.1721Q117.361,62.302,117.424,62.4352Q117.487,62.5683,117.543,62.7044Q117.6,62.8405,117.649,62.9791Q117.699,63.1178,117.742,63.2588Q117.784,63.3997,117.82,63.5426Q117.856,63.6855,117.885,63.8299Q117.913,63.9744,117.935,64.12010000000001Q117.957,64.2658,117.971,64.41239999999999Q117.986,64.559,117.993,64.70609999999999Q118,64.8532,118,65.0005Q118,65.14779999999999,117.993,65.2949Q117.986,65.44200000000001,117.971,65.5886Q117.957,65.73519999999999,117.935,65.8809Q117.913,66.0266,117.885,66.17099999999999Q117.856,66.3155,117.82,66.4584Q117.784,66.6012,117.742,66.7422Q117.699,66.8831,117.649,67.0218Q117.6,67.1605,117.543,67.2966Q117.487,67.4327,117.424,67.5658Q117.361,67.699,117.292,67.8289Q117.222,67.9588,117.146,68.0851Q117.071,68.2114,116.989,68.3339Q116.907,68.4564,116.819,68.5747Q116.731,68.693,116.638,68.80680000000001Q116.545,68.9207,116.446,69.0298Q116.347,69.13900000000001,116.243,69.2431Q116.138,69.34729999999999,116.029,69.4462Q115.92,69.54509999999999,115.806,69.6385Q115.692,69.732,115.574,69.8197Q115.456,69.9075,115.333,69.9893Q115.211,70.0711,115.085,70.1469Q114.958,70.2226,114.828,70.292Q114.698,70.3614,114.565,70.42439999999999Q114.432,70.48740000000001,114.296,70.5438Q114.16,70.6001,114.021,70.6497Q113.883,70.6994,113.742,70.7421Q113.601,70.7849,113.458,70.8207Q113.315,70.8565,113.171,70.8852Q113.026,70.9139,112.88,70.93549999999999Q112.735,70.9572,112.588,70.9716Q112.442,70.98599999999999,112.294,70.9933Q112.147,71.0005,112,71.0005Q111.853,71.0005,111.706,70.9933Q111.558,70.98599999999999,111.412,70.9716Q111.265,70.9572,111.12,70.93549999999999Q110.974,70.9139,110.829,70.8852Q110.685,70.8565,110.542,70.8207Q110.399,70.7849,110.258,70.7421Q110.117,70.6994,109.979,70.6497Q109.84,70.6001,109.704,70.5438Q109.568,70.48740000000001,109.435,70.42439999999999Q109.302,70.3614,109.172,70.292Q109.042,70.2226,108.915,70.1469Q108.789,70.0711,108.667,69.9893Q108.544,69.9075,108.426,69.8197Q108.307,69.732,108.194,69.6385Q108.08,69.54509999999999,107.9706,69.4462Q107.8615,69.34729999999999,107.7574,69.2431Q107.6532,69.13900000000001,107.5543,69.0298Q107.4554,68.9207,107.3619,68.80680000000001Q107.2685,68.693,107.1807,68.5747Q107.093,68.4564,107.0112,68.3339Q106.9293,68.2114,106.8536,68.0851Q106.7779,67.9588,106.7085,67.8289Q106.639,67.699,106.5761,67.5658Q106.5131,67.4327,106.4567,67.2966Q106.4003,67.1605,106.3507,67.0218Q106.3011,66.8831,106.2584,66.7422Q106.2156,66.6012,106.1798,66.4584Q106.144,66.3155,106.1153,66.17099999999999Q106.0865,66.0266,106.0649,65.8809Q106.0433,65.73519999999999,106.0289,65.5886Q106.0144,65.44200000000001,106.0072,65.2949Q106,65.14779999999999,106,65.0005ZM88,62.0005Q87.8527,62.0005,87.7056,62.0077Q87.5585,62.0149,87.4119,62.0294Q87.2653,62.0438,87.1196,62.0654Q86.9739,62.087,86.8295,62.1158Q86.685,62.1445,86.5421,62.1803Q86.3992,62.2161,86.2583,62.2588Q86.1173,62.3016,85.9786,62.3512Q85.84,62.4008,85.7039,62.4572Q85.5678,62.5136,85.4347,62.5765Q85.3015,62.6395,85.1716,62.709Q85.0417,62.7784,84.9154,62.8541Q84.789,62.9298,84.6666,63.0117Q84.5441,63.0935,84.4258,63.1812Q84.3075,63.269,84.1936,63.3624Q84.0798,63.4559,83.9706,63.5548Q83.8615,63.6537,83.7574,63.7578Q83.6532,63.862,83.5543,63.9711Q83.4554,64.0803,83.3619,64.19409999999999Q83.2685,64.30799999999999,83.1807,64.4263Q83.093,64.5446,83.0112,64.6671Q82.9293,64.7895,82.8536,64.9159Q82.7779,65.04220000000001,82.7085,65.1721Q82.639,65.30199999999999,82.5761,65.43520000000001Q82.5131,65.5683,82.4567,65.70439999999999Q82.4003,65.84049999999999,82.3507,65.9791Q82.3011,66.1178,82.2584,66.25880000000001Q82.2156,66.3997,82.1798,66.5426Q82.144,66.68549999999999,82.1153,66.82990000000001Q82.0865,66.9744,82.0649,67.12010000000001Q82.0433,67.2658,82.0289,67.41239999999999Q82.0145,67.559,82.0072,67.70609999999999Q82,67.8532,82,68.0005Q82,68.14779999999999,82.0072,68.2949Q82.0145,68.44200000000001,82.0289,68.5886Q82.0433,68.73519999999999,82.0649,68.8809Q82.0865,69.0266,82.1153,69.17099999999999Q82.144,69.3155,82.1798,69.4584Q82.2156,69.6012,82.2584,69.7422Q82.3011,69.8831,82.3507,70.0218Q82.4003,70.1605,82.4567,70.2966Q82.5131,70.4327,82.5761,70.5658Q82.639,70.699,82.7085,70.8289Q82.7779,70.9588,82.8536,71.0851Q82.9293,71.2114,83.0112,71.3339Q83.093,71.4564,83.1807,71.5747Q83.2685,71.693,83.3619,71.80680000000001Q83.4554,71.9207,83.5543,72.0298Q83.6532,72.13900000000001,83.7574,72.2431Q83.8615,72.34729999999999,83.9706,72.4462Q84.0798,72.54509999999999,84.1936,72.6385Q84.3075,72.732,84.4258,72.8197Q84.5441,72.9075,84.6666,72.9893Q84.789,73.0711,84.9154,73.1469Q85.0417,73.2226,85.1716,73.292Q85.3015,73.3614,85.4347,73.42439999999999Q85.5678,73.48740000000001,85.7039,73.5438Q85.84,73.6001,85.9786,73.6497Q86.1173,73.6994,86.2583,73.7421Q86.3992,73.7849,86.5421,73.8207Q86.685,73.8565,86.8295,73.8852Q86.9739,73.9139,87.1196,73.93549999999999Q87.2653,73.9572,87.4119,73.9716Q87.5585,73.98599999999999,87.7056,73.9933Q87.8527,74.0005,88,74.0005Q88.1473,74.0005,88.2944,73.9933Q88.4415,73.98599999999999,88.5881,73.9716Q88.7347,73.9572,88.8804,73.93549999999999Q89.0261,73.9139,89.1705,73.8852Q89.315,73.8565,89.4579,73.8207Q89.6007,73.7849,89.7417,73.7421Q89.8826,73.6994,90.0213,73.6497Q90.16,73.6001,90.2961,73.5438Q90.4322,73.48740000000001,90.5653,73.42439999999999Q90.6985,73.3614,90.8284,73.292Q90.9583,73.2226,91.0846,73.1469Q91.2109,73.0711,91.3334,72.9893Q91.4559,72.9075,91.5742,72.8197Q91.6925,72.732,91.8064,72.6385Q91.9202,72.54509999999999,92.0294,72.4462Q92.1385,72.34729999999999,92.2426,72.2431Q92.3468,72.13900000000001,92.4457,72.0298Q92.5446,71.9207,92.6381,71.80680000000001Q92.7315,71.693,92.8192,71.5747Q92.907,71.4564,92.9888,71.3339Q93.0706,71.2114,93.1464,71.0851Q93.2221,70.9588,93.2915,70.8289Q93.3609,70.699,93.4239,70.5658Q93.4869,70.4327,93.5433,70.2966Q93.5996,70.1605,93.6493,70.0218Q93.6989,69.8831,93.7416,69.7422Q93.7844,69.6012,93.8202,69.4584Q93.856,69.3155,93.8847,69.17099999999999Q93.9135,69.0266,93.9351,68.8809Q93.9567,68.73519999999999,93.9711,68.5886Q93.9855,68.44200000000001,93.9928,68.2949Q94,68.14779999999999,94,68.0005Q94,67.8532,93.9928,67.70609999999999Q93.9855,67.559,93.9711,67.41239999999999Q93.9567,67.2658,93.9351,67.12010000000001Q93.9135,66.9744,93.8847,66.82990000000001Q93.856,66.68549999999999,93.8202,66.5426Q93.7844,66.3997,93.7416,66.25880000000001Q93.6989,66.1178,93.6493,65.9791Q93.5996,65.84049999999999,93.5433,65.70439999999999Q93.4869,65.5683,93.4239,65.43520000000001Q93.3609,65.30199999999999,93.2915,65.1721Q93.2221,65.04220000000001,93.1464,64.9159Q93.0706,64.7895,92.9888,64.6671Q92.907,64.5446,92.8192,64.4263Q92.7315,64.30799999999999,92.6381,64.19409999999999Q92.5446,64.0803,92.4457,63.9711Q92.3468,63.862,92.2426,63.7578Q92.1385,63.6537,92.0294,63.5548Q91.9202,63.4559,91.8064,63.3624Q91.6925,63.269,91.5742,63.1812Q91.4559,63.0935,91.3334,63.0117Q91.2109,62.9298,91.0846,62.8541Q90.9583,62.7784,90.8284,62.709Q90.6985,62.6395,90.5653,62.5765Q90.4322,62.5136,90.2961,62.4572Q90.16,62.4008,90.0213,62.3512Q89.8826,62.3016,89.7417,62.2588Q89.6007,62.2161,89.4579,62.1803Q89.315,62.1445,89.1705,62.1158Q89.0261,62.087,88.8804,62.0654Q88.7347,62.0438,88.5881,62.0294Q88.4415,62.0149,88.2944,62.0077Q88.1473,62.0005,88,62.0005ZM100,72.0005Q99.8527,72.0005,99.7056,72.0077Q99.5585,72.0149,99.4119,72.02940000000001Q99.2653,72.0438,99.1196,72.0654Q98.9739,72.087,98.8295,72.11580000000001Q98.685,72.1445,98.5421,72.1803Q98.3992,72.2161,98.2583,72.25880000000001Q98.1173,72.30160000000001,97.9787,72.3512Q97.84,72.4008,97.7039,72.4572Q97.5678,72.5136,97.4347,72.57650000000001Q97.3015,72.6395,97.1716,72.709Q97.0417,72.7784,96.9154,72.8541Q96.789,72.9298,96.6666,73.01169999999999Q96.5441,73.0935,96.4258,73.18119999999999Q96.3075,73.269,96.1936,73.36240000000001Q96.0798,73.4559,95.9706,73.5548Q95.8615,73.6537,95.7574,73.7578Q95.6532,73.862,95.5543,73.9711Q95.4554,74.0803,95.3619,74.19409999999999Q95.2685,74.30799999999999,95.1808,74.4263Q95.093,74.5446,95.0112,74.6671Q94.9293,74.7895,94.8536,74.9159Q94.7779,75.04220000000001,94.7085,75.1721Q94.639,75.30199999999999,94.5761,75.43520000000001Q94.5131,75.5683,94.4567,75.70439999999999Q94.4004,75.84049999999999,94.3507,75.9791Q94.3011,76.1178,94.2584,76.25880000000001Q94.2156,76.3997,94.1798,76.5426Q94.144,76.68549999999999,94.1153,76.82990000000001Q94.0865,76.9744,94.0649,77.12010000000001Q94.0433,77.2658,94.0289,77.41239999999999Q94.0145,77.559,94.0072,77.70609999999999Q94,77.8532,94,78.0005Q94,78.14779999999999,94.0072,78.2949Q94.0145,78.44200000000001,94.0289,78.5886Q94.0433,78.73519999999999,94.0649,78.8809Q94.0865,79.0266,94.1153,79.17099999999999Q94.144,79.3155,94.1798,79.4584Q94.2156,79.6012,94.2584,79.7422Q94.3011,79.8831,94.3507,80.0218Q94.4004,80.1605,94.4567,80.2966Q94.5131,80.4327,94.5761,80.5658Q94.639,80.699,94.7085,80.8289Q94.7779,80.9588,94.8536,81.0851Q94.9293,81.2114,95.0112,81.3339Q95.093,81.4564,95.1808,81.5747Q95.2685,81.693,95.3619,81.8069Q95.4554,81.9207,95.5543,82.0298Q95.6532,82.13900000000001,95.7574,82.2431Q95.8615,82.34729999999999,95.9706,82.4462Q96.0798,82.54509999999999,96.1936,82.6386Q96.3075,82.732,96.4258,82.8197Q96.5441,82.9075,96.6666,82.9893Q96.789,83.0711,96.9154,83.1469Q97.0417,83.2226,97.1716,83.292Q97.3015,83.3614,97.4347,83.42439999999999Q97.5678,83.48740000000001,97.7039,83.5438Q97.84,83.6001,97.9787,83.6497Q98.1173,83.6994,98.2583,83.7421Q98.3992,83.7849,98.5421,83.8207Q98.685,83.8565,98.8295,83.8852Q98.9739,83.9139,99.1196,83.93549999999999Q99.2653,83.9572,99.4119,83.9716Q99.5585,83.98599999999999,99.7056,83.9933Q99.8527,84.0005,100,84.0005Q100.1473,84.0005,100.2944,83.9933Q100.4415,83.98599999999999,100.5881,83.9716Q100.7347,83.9572,100.8804,83.93549999999999Q101.0261,83.9139,101.1705,83.8852Q101.315,83.8565,101.4579,83.8207Q101.6008,83.7849,101.7417,83.7421Q101.8827,83.6994,102.0213,83.6497Q102.16,83.6001,102.2961,83.5438Q102.4322,83.48740000000001,102.5653,83.42439999999999Q102.6985,83.3614,102.8284,83.292Q102.9583,83.2226,103.0846,83.1469Q103.2109,83.0711,103.3334,82.9893Q103.4559,82.9075,103.5742,82.8197Q103.6925,82.732,103.8064,82.6385Q103.9202,82.54509999999999,104.0294,82.4462Q104.1385,82.34729999999999,104.2426,82.2431Q104.3468,82.13900000000001,104.4457,82.0298Q104.5446,81.9207,104.6381,81.80680000000001Q104.7315,81.693,104.8192,81.5747Q104.907,81.4564,104.9888,81.3339Q105.0706,81.2114,105.1464,81.0851Q105.2221,80.9588,105.2915,80.8289Q105.3609,80.699,105.4239,80.5658Q105.4869,80.4327,105.5433,80.2966Q105.5996,80.1605,105.6493,80.0218Q105.6989,79.8831,105.7416,79.7422Q105.7844,79.6012,105.8202,79.4584Q105.856,79.3155,105.8847,79.17099999999999Q105.9134,79.0266,105.9351,78.8809Q105.9567,78.73519999999999,105.9711,78.5886Q105.9855,78.44200000000001,105.9928,78.2949Q106,78.14779999999999,106,78.0005Q106,77.8532,105.9928,77.70609999999999Q105.9855,77.559,105.9711,77.41239999999999Q105.9567,77.2658,105.9351,77.12010000000001Q105.9134,76.9744,105.8847,76.82990000000001Q105.856,76.68549999999999,105.8202,76.5426Q105.7844,76.3997,105.7416,76.25880000000001Q105.6989,76.1178,105.6493,75.9791Q105.5996,75.84049999999999,105.5433,75.70439999999999Q105.4869,75.5683,105.4239,75.43520000000001Q105.3609,75.30199999999999,105.2915,75.1721Q105.2221,75.04220000000001,105.1464,74.9159Q105.0706,74.7895,104.9888,74.6671Q104.907,74.5446,104.8192,74.4263Q104.7315,74.30799999999999,104.6381,74.19409999999999Q104.5446,74.0803,104.4457,73.9711Q104.3468,73.862,104.2426,73.7578Q104.1385,73.6537,104.0294,73.5548Q103.9202,73.4559,103.8064,73.36240000000001Q103.6925,73.269,103.5742,73.18119999999999Q103.4559,73.0935,103.3334,73.01169999999999Q103.2109,72.9298,103.0846,72.8541Q102.9583,72.7784,102.8284,72.709Q102.6985,72.6395,102.5653,72.57650000000001Q102.4322,72.5136,102.2961,72.4572Q102.16,72.4008,102.0213,72.3512Q101.8827,72.30160000000001,101.7417,72.25880000000001Q101.6008,72.2161,101.4579,72.1803Q101.315,72.1445,101.1705,72.11580000000001Q101.0261,72.087,100.8804,72.0654Q100.7347,72.0438,100.5881,72.02940000000001Q100.4415,72.0149,100.2944,72.0077Q100.1473,72.0005,100,72.0005ZM8,114.9497L8,110.0522C8,109.1499,9.062850000000001,108.6677,9.74197,109.2619L14.6401,113.5471C15.3225,114.1442,14.97849,115.2671,14.07873,115.3796L9.1806,115.9917C8.553712,116.0701,8,115.5813,8,114.9497Z" fill-rule="evenodd" fill="#FFFFFF" fill-opacity="1"/></g></g></g></g></svg>