<svg xmlns="http://www.w3.org/2000/svg" xmlns:xlink="http://www.w3.org/1999/xlink" fill="none" version="1.1" width="172" height="172" viewBox="0 0 172 172"><g><g><path d="M121.242,126.81353Q121.938,128.01927,122.273,130.09587Q122.417,131.06715,122.501,132.25614Q122.585,133.44513,122.585,134.8518L122.585,141.48329999999999Q122.585,142.89,122.501,144.0958Q122.417,145.3015,122.273,146.2728Q121.938,148.3158,121.242,149.5885Q120.499,150.8947,119.372,151.4306Q118.221,152,116.662,152L110.811,152Q109.228,152,108.125,151.4306Q106.998,150.8947,106.255,149.555Q105.535,148.2488,105.224,146.2728Q105.056,145.3015,104.984,144.0958Q104.912,142.89,104.912,141.48329999999999L104.912,134.8518Q104.912,131.97145,105.224,130.09587Q105.535,128.11981,106.255,126.81353Q106.998,125.54081,108.125,124.938299Q109.276,124.368924,110.811,124.368642L116.662,124.368642Q118.221,124.368642,119.372,124.938299Q120.499,125.54116,121.242,126.81353ZM119.012,134.2824Q119.012,133.5456,118.988,132.92599Q118.964,132.30638,118.892,131.80399Q118.796,130.8662,118.484,130.29683Q118.245,129.82793,117.765,129.55999Q117.525,129.45951,117.226,129.39253Q116.926,129.32554,116.542,129.32554L110.931,129.32554Q110.547,129.32554,110.247,129.39253Q109.948,129.45951,109.708,129.55999Q109.228,129.82793,108.989,130.29683Q108.725,130.79921,108.581,131.80399Q108.533,132.30638,108.497,132.92599Q108.461,133.5456,108.461,134.2824L108.461,142.0862Q108.461,142.823,108.497,143.4427Q108.533,144.0623,108.581,144.5647Q108.653,145.0336,108.749,145.402Q108.845,145.7704,108.989,146.0383Q109.228,146.5742,109.708,146.7752Q110.14,147.0096,110.931,147.0096L116.542,147.0096Q117.333,147.0096,117.765,146.7752Q118.245,146.5742,118.484,146.0383Q118.772,145.5359,118.892,144.5647Q118.964,144.0623,118.988,143.4427Q119.012,142.823,119.012,142.0862L119.012,134.2824ZM146.109,124.368642Q146.277,124.368642,146.529,124.552622Q146.78,124.736831,146.78,125.50727L146.781,141.48329999999999Q146.781,142.89,146.709,144.0958Q146.637,145.3015,146.469,146.2728Q146.133,148.3493,145.438,149.555Q144.742,150.8278,143.567,151.4306Q142.488,151.9665,140.858,151.9665L135.462,151.9665Q133.831,151.9665,132.752,151.4306Q132.201,151.1292,131.721,150.677Q131.242,150.2249,130.906,149.555Q130.163,148.2823,129.851,146.2728Q129.683,145.3015,129.611,144.0958Q129.539,142.89,129.539,141.48329999999999L129.539,125.50727Q129.539,124.736945,129.803,124.552622Q130.067,124.368413,130.235,124.368642L132.417,124.368642Q132.585,124.368642,132.836,124.552622Q133.088,124.736831,133.088,125.50727L133.088,142.0192Q133.088,142.7895,133.124,143.4259Q133.16,144.0623,133.208,144.5312Q133.352,145.4355,133.616,146.0383Q133.903,146.54070000000002,134.335,146.7752Q134.575,146.8756,134.887,146.9426Q135.198,147.0096,135.582,147.0096L140.762,147.0096Q141.145,147.0096,141.457,146.9426Q141.769,146.8756,142.009,146.7752Q142.44,146.54070000000002,142.728,146.0383Q142.848,145.7704,142.956,145.3852Q143.064,145.0001,143.112,144.5312Q143.16,144.0623,143.196,143.4259Q143.232,142.7895,143.232,142.0192L143.232,125.50727Q143.232,124.736945,143.483,124.552622Q143.735,124.368413,143.903,124.368642L146.109,124.368642ZM170.305,124.368642Q170.472,124.368642,170.736,124.552622Q171,124.736831,171,125.50727L171,128.11981Q171,128.52172,170.916,128.77291Q170.832,129.02411,170.724,129.14133Q170.616,129.25856,170.496,129.29205Q170.377,129.32554,170.305,129.32554L164.142,129.32554L164.142,150.8278Q164.142,151.5981,163.89,151.7823Q163.638,151.9665,163.47,151.9665L161.264,151.9665Q161.12,151.9665,160.857,151.7823Q160.593,151.5981,160.593,150.8278L160.593,129.32554L154.43,129.32554Q154.358,129.32554,154.238,129.29205Q154.118,129.25856,154.01,129.14133Q153.902,129.02411,153.819,128.77291Q153.735,128.52172,153.735,128.11981L153.735,125.50727Q153.735,124.736945,153.998,124.552622Q154.262,124.368413,154.43,124.368642L170.305,124.368642ZM16.4909,124.368642Q16.6588,124.368642,16.9225,124.569657Q17.1863,124.770611,17.1862,125.54066L17.1863,150.8275Q17.1863,151.5979,16.9225,151.7988Q16.6587,151.9998,16.4909,151.9998L14.2847,151.9998Q14.1409,151.9998,13.8891,151.7988Q13.6373,151.5979,13.6373,150.8275L13.6373,140.5118L4.54899,140.5118L4.54899,150.8275Q4.54899,151.5979,4.29721,151.7988Q4.04542,151.9998,3.87756,151.9998L1.695411,151.9998Q1.5275530000000002,151.9998,1.263777,151.7988Q1,151.5979,1,150.8275L1,125.54066Q1,124.770334,1.2638150000000001,124.569657Q1.5275910000000001,124.3687,1.695456,124.368642L3.87757,124.368642Q4.04542,124.368642,4.29726,124.569657Q4.54904,124.770611,4.5489999999999995,125.54066L4.54899,135.5549L13.6373,135.5549L13.6372,125.54066Q13.6372,124.770334,13.8891,124.569657Q14.1409,124.3687,14.2848,124.368642L16.4909,124.368642ZM43.7318,150.6936Q43.8757,151.1625,43.8037,151.4974Q43.7558,151.63139999999999,43.6599,151.8156Q43.5639,151.9998,43.2762,151.9998L40.7104,151.9998Q40.2068,151.9998,40.015,151.2629L34.068,130.53105L34.044,130.46406L33.9481,130.46406L33.9241,130.49756Q33.9241,130.53105,33.9121,130.53105Q33.9001,130.53105,33.9001,130.56454L30.8307,141.4161L33.8042,141.4161Q34.3078,141.4161,34.4996,142.086L35.3629,145.0668Q35.4828,145.6362,35.267,146.0381Q35.0751,146.507,34.6435,146.507L29.392,146.507L28.0251,151.2964Q27.8333,151.9998,27.3537,151.9998L24.7159,151.9998Q24.4282,151.9998,24.3202,151.8323Q24.2123,151.6649,24.1884,151.4974Q24.1164,151.196,24.2363,150.6936L30.9267,127.48323Q31.4062,125.70812,31.9818,125.03847Q32.053799999999995,124.97148,32.1376,124.870839Q32.2215,124.770361,32.341499999999996,124.703213Q33.0609,123.999866913,33.9961,124Q35.0032,124,35.7826,124.83745Q36.5619,125.67476,36.8496,126.98116L36.9935,127.48323L43.7318,150.6936ZM67.7834,124.368642Q67.9273,124.368642,68.1911,124.552622Q68.4549,124.736831,68.4548,125.54066L68.4549,147.6792Q68.4549,150.1242,67.9513,151.0285Q67.4477,151.9998,66.3926,151.9998L64.6421,151.9998Q64.1385,151.9998,63.8268,151.8993Q63.4191,151.7988,63.1793,151.5309Q62.8916,151.2964,62.6518,150.794Q62.5319,150.5596,62.388,150.2582Q62.2441,149.9567,62.1002,149.5548L54.4987,130.732Q54.4747,130.732,54.4747,130.66502Q54.4747,130.63153,54.4507,130.63153L54.4267,130.63153L54.3068,130.63153L54.3068,150.8275Q54.3068,151.5979,54.0551,151.7988Q53.8033,151.9998,53.6354,151.9998L51.5012,151.9998Q51.3334,151.9998,51.0696,151.7988Q50.8058,151.5979,50.8058,150.8275L50.8058,128.68896Q50.8058,126.27749,51.3094,125.30626Q51.837,124.368466,52.8681,124.368642L54.6666,124.368642Q54.9064,124.368642,55.1102,124.384995Q55.314,124.40174,55.5058,124.43542Q55.8895,124.535898,56.1773,124.83745Q56.4171,125.0719,56.6809,125.60744Q56.8008,125.84189,56.9326,126.14371Q57.0645,126.44514,57.2084,126.81353L64.786,145.6362Q64.8099,145.73669999999998,64.8579,145.73669999999998L64.9778,145.73669999999998L64.9778,125.54066Q64.9778,124.736841,65.2297,124.552622Q65.4814,124.368413,65.6492,124.368642L67.7834,124.368642ZM91.6432,124.368642Q91.7871,124.368642,92.0509,124.569657Q92.3147,124.770611,92.3146,125.54066L92.3147,128.15308Q92.3147,128.9569,92.0509,129.14111Q91.7871,129.32532,91.6432,129.32532L81.4519,129.32532Q81.0682,129.32532,80.7564,129.3923Q80.4447,129.45929,80.2049,129.55977000000001Q79.7733,129.79421,79.4855,130.2966Q79.1978,130.89947,79.1018,131.77027Q78.958,132.77505,78.958,134.2822L78.958,142.0525Q78.958,143.5597,79.1018,144.5644Q79.1978,145.4687,79.4855,146.0381Q79.7733,146.574,80.2049,146.7749Q80.6365,147.0094,81.4519,147.0094L88.1662,147.0094Q88.5738,147.0094,88.7417,146.641Q88.8136,146.4735,88.8856,146.1051Q88.9575,145.73669999999998,88.9575,144.9663L88.9335,140.2774L82.9626,140.2774Q82.8906,140.2774,82.7707,140.2439Q82.6508,140.2104,82.5429,140.0932Q82.435,139.976,82.3631,139.7248Q82.2911,139.4736,82.2911,139.0717L82.2911,136.5262Q82.2911,135.7224,82.5549,135.5214Q82.8187,135.3205,82.9626,135.3205L91.4514,135.3205Q91.6912,135.3205,91.9909,135.5884Q92.2907,135.8564,92.2907,136.7942L92.2907,145.7702Q92.2907,149.0859,91.5953,150.52609999999999Q90.8759,151.9998,89.533,151.9998L81.332,151.9998Q79.7733,151.9998,78.6223,151.4304Q77.5192,150.8945,76.7758,149.5883Q76.0324,148.2486,75.7207,146.306Q75.409,144.3635,75.409,141.4831L75.409,134.8516Q75.409,133.4449,75.4809,132.25592Q75.5529,131.06693,75.7207,130.09565Q76.0324,128.15308,76.7758,126.81353Q77.4472,125.57431,78.6222,124.937617Q79.7733,124.368242,81.332,124.368642L91.6432,124.368642Z" fill="#FFFFFF" fill-opacity="1"/><path d="M23.2057,151.6851Q23.267,152.0439,23.4797,152.374Q23.8829,152.9998,24.7159,152.9998L27.3537,152.9998Q28.597,152.9998,28.9867,151.5709L30.1465,147.507L34.6435,147.507Q35.7227,147.507,36.173,146.4633Q36.5302,145.757,36.3414,144.8608L36.3338,144.8244L35.461,141.8107Q35.0616,140.4161,33.8042,140.4161L32.1528,140.4161L33.995,133.9033L39.0506,151.5277Q39.4393,152.9998,40.7104,152.9998L43.2762,152.9998Q44.1707,152.9998,44.5468,152.2774Q44.6742,152.0327,44.7452,151.8345L44.7675,151.7721L44.7815,151.7074Q44.9074,151.1212,44.6902,150.40800000000002L37.9548,127.20775L37.8192,126.73449Q37.4701,125.18277,36.5146,124.156212Q35.4387,123,33.9962,123Q32.7081,122.99982,31.7255,123.9091601Q31.5245,124.0448762,31.3691,124.230895Q31.3259,124.282835,31.3003,124.306618L31.2597,124.344494L31.2234,124.386644Q30.5,125.22832,29.9658,127.20625L23.269,150.4389L23.2636,150.4614Q23.0956,151.1656,23.2057,151.6851ZM74.409,134.8516L74.409,141.4831Q74.409,144.4432,74.7334,146.4645Q75.0729,148.5803,75.9067,150.0829Q76.8034,151.6585,78.1789,152.3267Q79.5395,152.9998,81.332,152.9998L89.533,152.9998Q91.5005,152.9998,92.4958,150.9609Q93.2907,149.3147,93.2907,145.7702L93.2907,136.7942Q93.2907,135.409,92.6574,134.8429Q92.073,134.3205,91.4514,134.3205L82.9626,134.3205Q82.4812,134.3205,81.9489,134.726Q81.2912,135.2271,81.2912,136.5262L81.2912,139.0717Q81.2912,139.6139,81.4017,140.0001Q81.5389,140.47899999999998,81.8072,140.7705Q82.1078,141.097,82.5017,141.207Q82.7536,141.2774,82.9626,141.2774L87.9386,141.2774L87.9575,144.9663Q87.9575,145.6399,87.9041,145.9134Q87.8939,145.9655,87.8849,146.0094L81.4519,146.0094Q80.8906,146.0094,80.6822,145.8962L80.655,145.88139999999999L80.627,145.8684Q80.4999,145.8092,80.3725,145.5761Q80.1718,145.1714,80.0963,144.459L80.0943,144.4408L80.0918,144.4227Q79.958,143.4884,79.958,142.0525L79.958,134.2822Q79.958,132.84629999999999,80.0918,131.91202L80.0941,131.89592L80.0958,131.87976Q80.1702,131.20433,80.3717,130.76232Q80.4955,130.55743999999999,80.644,130.46127Q80.782,130.40965,80.9665,130.36999Q81.1744,130.32532,81.4519,130.32532L91.6432,130.32532Q92.1017,130.32532,92.6234,129.96097Q93.3147,129.47826,93.3147,128.15306L93.3146,125.54077Q93.3148,124.275355,92.6569,123.7742Q92.1246,123.368642,91.6432,123.368642L81.3322,123.368642Q79.5396,123.368182,78.1789,124.0412861L78.1622,124.0495329L78.1458,124.058394Q76.7095,124.836652,75.9014,126.32832Q75.0729,127.82133,74.7353,129.92535Q74.558,130.95125,74.4827,132.19553Q74.409,133.41472,74.409,134.8516ZM63.9778,125.54066L63.9778,140.951L58.1398,126.44973Q57.9887,126.06266,57.849,125.74342Q57.705,125.41372,57.5779,125.16555Q57.2446,124.488877,56.8894,124.135246L56.8893,124.135149Q56.4094,123.638329,55.7592,123.468043L55.7193,123.457607L55.6788,123.450484Q55.4417,123.40886,55.1902,123.3882Q54.9464,123.368642,54.6666,123.368642L52.8682,123.368642Q51.2522,123.368366,50.4379,124.815967L50.4295,124.830808L50.4217,124.845925Q49.8058,126.03364,49.8058,128.68896L49.8058,150.8275Q49.8058,152.0932,50.4636,152.5943Q50.9958,152.9998,51.5012,152.9998L53.6354,152.9998Q54.1534,152.9998,54.6789,152.5804Q55.3068,152.07920000000001,55.3068,150.8275L55.3068,135.4036L61.1657,149.9111Q61.3233,150.3491,61.4855,150.6889Q61.6318,150.9953,61.7555,151.2377Q62.0679,151.8872,62.4876,152.2553Q62.9108,152.6949,63.5544,152.8619Q64.0058,152.9998,64.6421,152.9998L66.3926,152.9998Q68.0487,152.9998,68.8325,151.5014Q69.4549,150.3677,69.4549,147.6792L69.4548,125.54077Q69.455,124.215508,68.7631,123.732332Q68.2415,123.368642,67.7834,123.368642L65.6506,123.368643Q65.1553,123.367967,64.63929999999999,123.745486Q63.9778,124.229325,63.9778,125.54066ZM128.539,125.50728L128.539,141.48329999999999Q128.539,142.9198,128.613,144.1553Q128.688,145.4169,128.863,146.4261Q129.2,148.6019,130.026,150.0319Q130.438,150.8411,131.035,151.4047Q131.608,151.945,132.273,152.3081L132.29,152.3175L132.308,152.3263Q133.597,152.9665,135.462,152.9665L140.858,152.9665Q142.723,152.9665,144.024,152.3204Q145.468,151.5794,146.31,150.0442L146.313,150.0393L146.315,150.0346Q147.094,148.6736,147.454,146.44310000000002Q147.632,145.4168,147.707,144.1553Q147.781,142.9198,147.781,141.48329999999999L147.78,125.50733Q147.781,124.229424,147.119,123.74529Q146.604,123.368642,146.109,123.368642L143.904,123.368643Q143.409,123.367967,142.893,123.74578Q142.232,124.22974,142.232,125.50727L142.232,142.0192Q142.232,142.7614,142.197,143.3695Q142.162,143.9829,142.117,144.4294Q142.078,144.813,141.993,145.1154Q141.915,145.3938,141.835,145.5829Q141.714,145.7799,141.569,145.87369999999999Q141.432,145.9253,141.247,145.9649Q141.039,146.0096,140.762,146.0096L135.582,146.0096Q135.305,146.0096,135.097,145.9649Q134.912,145.9253,134.774,145.87369999999999Q134.63,145.7805,134.51,145.5854Q134.316,145.1197,134.2,144.4015Q134.156,143.964,134.122,143.3695Q134.088,142.7614,134.088,142.0192L134.088,125.50733Q134.088,124.229416,133.426,123.745154Q132.911,123.368642,132.417,123.368642L130.236,123.368643Q129.753,123.367983,129.23,123.732894Q128.539,124.215743,128.539,125.50728ZM152.735,128.11981Q152.735,128.68441,152.87,129.08979Q153.022,129.54395,153.275,129.8186Q153.575,130.14513,153.969,130.2552Q154.221,130.32554,154.43,130.32554L159.593,130.32554L159.593,150.8278Q159.593,152.1195,160.284,152.6021Q160.806,152.9665,161.264,152.9665L163.47,152.9665Q163.965,152.9665,164.48,152.5894Q165.142,152.1055,165.142,150.8278L165.142,130.32554L170.305,130.32554Q170.514,130.32554,170.765,130.25518Q171.159,130.14513,171.46,129.81861Q171.713,129.54397,171.865,129.0898Q172,128.68436,172,128.11983L172,125.50722Q172,124.215461,171.308,123.732404Q170.787,123.368642,170.305,123.368642L154.431,123.368643Q153.948,123.367983,153.426,123.732884Q152.735,124.215729,152.735,125.50727L152.735,128.11981ZM12.6372,125.54067L12.6373,134.5549L5.54899,134.5549L5.549,125.54072Q5.54907,124.289301,4.9211,123.788108Q4.39559,123.368642,3.87757,123.368642L1.6951070000000001,123.368642Q1.18991,123.368818,0.658391,123.773754Q0,124.274575,0,125.54066L0,150.8275Q0,152.0932,0.6577649999999999,152.5943Q1.190029,152.9998,1.695411,152.9998L3.87756,152.9998Q4.39556,152.9998,4.92101,152.5804Q5.54899,152.07920000000001,5.54899,150.8275L5.54899,141.5118L12.6373,141.5118L12.6373,150.8275Q12.6373,152.07920000000001,13.2653,152.5804Q13.7907,152.9998,14.2847,152.9998L16.4909,152.9998Q16.996299999999998,152.9998,17.5285,152.5943Q18.1863,152.0932,18.1863,150.8275L18.1862,125.54077Q18.1864,124.275351,17.5287,123.774279Q16.9964,123.368642,16.4909,123.368642L14.2844,123.368642Q13.7906,123.368843,13.266,123.78756Q12.6372,124.288497,12.6372,125.54067ZM103.912,134.8518L103.912,141.48329999999999Q103.912,142.9198,103.986,144.1553Q104.061,145.4169,104.236,146.4286Q104.575,148.5778,105.38,150.0402Q106.275,151.6517,107.681,152.3267Q108.995,153,110.811,153L116.662,153Q118.455,153,119.801,152.3337Q121.212,151.6628,122.12,150.068Q122.897,148.64600000000002,123.262,146.4193Q123.412,145.4097,123.499,144.1652Q123.585,142.9249,123.585,141.48329999999999L123.585,134.8518Q123.585,133.40996,123.499,132.18572Q123.412,130.95855,123.26,129.93627Q122.895,127.67856,122.108,126.31392L122.106,126.3091Q121.22,124.792698,119.843,124.0565244L119.83,124.0490645L119.815,124.0420493Q118.455,123.368642,116.662,123.368642L110.811,123.368642Q109.042,123.368967,107.682,124.0419683L107.668,124.0489714L107.654,124.0564181Q106.277,124.792262,105.391,126.30918L105.385,126.32008L105.379,126.33113Q104.575,127.79089,104.237,129.93191Q103.912,131.88887,103.912,134.8518ZM34.6435,146.507L29.392,146.507L28.0251,151.2964Q27.8333,151.9998,27.3537,151.9998L24.7159,151.9998Q24.4282,151.9998,24.3202,151.8323Q24.2123,151.6649,24.1884,151.4974Q24.1164,151.196,24.2363,150.6936L30.9267,127.48323Q31.4062,125.70812,31.9818,125.03847Q32.053799999999995,124.97148,32.1376,124.870839Q32.2215,124.770361,32.341499999999996,124.703213Q33.0609,123.999866913,33.9961,124Q35.0032,124,35.7826,124.83745Q36.5619,125.67476,36.8496,126.98116L36.9935,127.48323L43.7318,150.6936Q43.8757,151.1625,43.8037,151.4974Q43.7558,151.63139999999999,43.6599,151.8156Q43.5639,151.9998,43.2762,151.9998L40.7104,151.9998Q40.2068,151.9998,40.015,151.2629L34.5115,132.07721L34.3381,131.47267L34.3379,131.47206L34.0931,130.61851L34.0748,130.55477L34.068,130.53105L34.056,130.49756L34.044,130.46406L33.9481,130.46406L33.9241,130.49756Q33.9241,130.5027,33.9238,130.50708Q33.9223,130.53105,33.9121,130.53105Q33.9001,130.53105,33.9001,130.56454L33.8956,130.58049L33.8918,130.59413L33.4717,132.07913L31.1136,140.4161L30.8307,141.4161L33.8042,141.4161Q34.3078,141.4161,34.4996,142.086L35.3629,145.0668Q35.4828,145.6362,35.267,146.0381Q35.0751,146.507,34.6435,146.507ZM64.9778,125.54066L64.9778,143.435L64.9778,145.73669999999998L64.8579,145.73669999999998Q64.8099,145.73669999999998,64.786,145.6362L63.9778,143.6287L57.2084,126.81353Q57.0645,126.44514,56.9326,126.14371Q56.8008,125.84189,56.6809,125.60744Q56.4171,125.0719,56.1773,124.83745Q55.8895,124.535898,55.5058,124.43542Q55.314,124.40174,55.1102,124.384995Q54.9064,124.368642,54.6666,124.368642L52.8681,124.368642Q51.837,124.368466,51.3094,125.30626Q50.8058,126.27749,50.8058,128.68896L50.8058,150.8275Q50.8058,151.5979,51.0696,151.7988Q51.3334,151.9998,51.5012,151.9998L53.6354,151.9998Q53.8033,151.9998,54.0551,151.7988Q54.3068,151.5979,54.3068,150.8275L54.3068,130.63153L54.4267,130.63153L54.4509,130.63153Q54.4747,130.63165,54.4747,130.66502Q54.4747,130.732,54.4987,130.732L55.3068,132.73316L62.1002,149.5548Q62.2441,149.9567,62.388,150.2582Q62.5319,150.5596,62.6518,150.794Q62.8916,151.2964,63.1793,151.5309Q63.4191,151.7988,63.8268,151.8993Q64.1385,151.9998,64.6421,151.9998L66.3926,151.9998Q67.4477,151.9998,67.9513,151.0285Q68.4549,150.1242,68.4549,147.6792L68.4548,125.54066Q68.4549,124.736831,68.1911,124.552622Q67.9273,124.368642,67.7834,124.368642L65.6492,124.368642Q65.4814,124.368413,65.2297,124.552622Q64.9778,124.736841,64.9778,125.54066ZM131.721,150.677Q131.242,150.2249,130.906,149.555Q130.163,148.2823,129.851,146.2728Q129.683,145.3015,129.611,144.0958Q129.539,142.89,129.539,141.48329999999999L129.539,125.50727Q129.539,124.736945,129.803,124.552622Q130.067,124.368413,130.235,124.368642L132.417,124.368642Q132.585,124.368642,132.836,124.552622Q133.088,124.736831,133.088,125.50727L133.088,142.0192Q133.088,142.7895,133.124,143.4259Q133.16,144.0623,133.208,144.5312Q133.352,145.4355,133.616,146.0383Q133.903,146.54070000000002,134.335,146.7752Q134.575,146.8756,134.887,146.9426Q135.198,147.0096,135.582,147.0096L140.762,147.0096Q141.145,147.0096,141.457,146.9426Q141.769,146.8756,142.009,146.7752Q142.44,146.54070000000002,142.728,146.0383Q142.848,145.7704,142.956,145.3852Q143.064,145.0001,143.112,144.5312Q143.16,144.0623,143.196,143.4259Q143.232,142.7895,143.232,142.0192L143.232,125.50727Q143.232,124.736945,143.483,124.552622Q143.735,124.368413,143.903,124.368642L146.109,124.368642Q146.277,124.368642,146.529,124.552622Q146.78,124.736831,146.78,125.50727L146.781,141.48329999999999Q146.781,142.89,146.709,144.0958Q146.637,145.3015,146.469,146.2728Q146.133,148.3493,145.438,149.555Q144.742,150.8278,143.567,151.4306Q142.488,151.9665,140.858,151.9665L135.462,151.9665Q133.831,151.9665,132.752,151.4306Q132.201,151.1292,131.721,150.677ZM160.593,150.8278L160.593,129.32554L154.43,129.32554Q154.358,129.32554,154.238,129.29205Q154.118,129.25856,154.01,129.14133Q153.902,129.02411,153.819,128.77291Q153.735,128.52172,153.735,128.11981L153.735,125.50727Q153.735,124.736945,153.998,124.552622Q154.262,124.368413,154.43,124.368642L170.305,124.368642Q170.472,124.368642,170.736,124.552622Q171,124.736831,171,125.50727L171,128.11981Q171,128.52172,170.916,128.77291Q170.832,129.02411,170.724,129.14133Q170.616,129.25856,170.496,129.29205Q170.377,129.32554,170.305,129.32554L164.142,129.32554L164.142,150.8278Q164.142,151.5981,163.89,151.7823Q163.638,151.9665,163.47,151.9665L161.264,151.9665Q161.12,151.9665,160.857,151.7823Q160.593,151.5981,160.593,150.8278ZM88.9575,144.9663L88.9335,140.2774L82.9626,140.2774Q82.8906,140.2774,82.7707,140.2439Q82.6508,140.2104,82.5429,140.0932Q82.435,139.976,82.3631,139.7248Q82.2911,139.4736,82.2911,139.0717L82.2911,136.5262Q82.2911,135.7224,82.5549,135.5214Q82.8187,135.3205,82.9626,135.3205L91.4514,135.3205Q91.6912,135.3205,91.9909,135.5884Q92.2907,135.8564,92.2907,136.7942L92.2907,145.7702Q92.2907,149.0859,91.5953,150.52609999999999Q90.8759,151.9998,89.533,151.9998L81.332,151.9998Q79.7733,151.9998,78.6223,151.4304Q77.5192,150.8945,76.7758,149.5883Q76.0324,148.2486,75.7207,146.306Q75.409,144.3635,75.409,141.4831L75.409,134.8516Q75.409,133.4449,75.4809,132.25592Q75.5529,131.06693,75.7207,130.09565Q76.0324,128.15308,76.7758,126.81353Q77.4472,125.57431,78.6222,124.937617Q79.7733,124.368242,81.332,124.368642L91.6432,124.368642Q91.7871,124.368642,92.0509,124.569657Q92.3147,124.770611,92.3146,125.54066L92.3147,128.15308Q92.3147,128.9569,92.0509,129.14111Q91.7871,129.32532,91.6432,129.32532L81.4519,129.32532Q81.0682,129.32532,80.7564,129.3923Q80.4447,129.45929,80.2049,129.55977000000001Q79.7733,129.79421,79.4855,130.2966Q79.1978,130.89947,79.1018,131.77027Q78.958,132.77505,78.958,134.2822L78.958,142.0525Q78.958,143.5597,79.1018,144.5644Q79.1978,145.4687,79.4855,146.0381Q79.7733,146.574,80.2049,146.7749Q80.6365,147.0094,81.4519,147.0094L88.1662,147.0094Q88.5738,147.0094,88.7417,146.641Q88.8136,146.4735,88.8856,146.1051Q88.9575,145.73669999999998,88.9575,144.9663ZM4.54899,135.5549L5.54899,135.5549L13.6373,135.5549L13.6373,134.5549L13.6372,125.54066Q13.6372,124.770334,13.8891,124.569657Q14.1409,124.3687,14.2848,124.368642L16.4909,124.368642Q16.6588,124.368642,16.9225,124.569657Q17.1863,124.770611,17.1862,125.54066L17.1863,150.8275Q17.1863,151.5979,16.9225,151.7988Q16.6587,151.9998,16.4909,151.9998L14.2847,151.9998Q14.1409,151.9998,13.8891,151.7988Q13.6373,151.5979,13.6373,150.8275L13.6373,141.5118L13.6373,140.5118L4.54899,140.5118L4.54899,150.8275Q4.54899,151.5979,4.29721,151.7988Q4.04542,151.9998,3.87756,151.9998L1.695411,151.9998Q1.5275530000000002,151.9998,1.263777,151.7988Q1,151.5979,1,150.8275L1,125.54066Q1,124.770334,1.2638150000000001,124.569657Q1.5275910000000001,124.3687,1.695456,124.368642L3.87757,124.368642Q4.04542,124.368642,4.29726,124.569657Q4.54904,124.770611,4.5489999999999995,125.54066L4.54899,134.5549L4.54899,135.5549ZM110.811,152Q109.228,152,108.125,151.4306Q106.998,150.8947,106.255,149.555Q105.535,148.2488,105.224,146.2728Q105.056,145.3015,104.984,144.0958Q104.912,142.89,104.912,141.48329999999999L104.912,134.8518Q104.912,131.97145,105.224,130.09587Q105.535,128.11981,106.255,126.81353Q106.998,125.54081,108.125,124.938299Q109.276,124.368924,110.811,124.368642L116.662,124.368642Q118.221,124.368642,119.372,124.938299Q120.499,125.54116,121.242,126.81353Q121.938,128.01927,122.273,130.09587Q122.417,131.06715,122.501,132.25614Q122.585,133.44513,122.585,134.8518L122.585,141.48329999999999Q122.585,142.89,122.501,144.0958Q122.417,145.3015,122.273,146.2728Q121.938,148.3158,121.242,149.5885Q120.499,150.8947,119.372,151.4306Q118.221,152,116.662,152L110.811,152ZM118.892,144.5647Q118.772,145.5359,118.484,146.0383Q118.245,146.5742,117.765,146.7752Q117.333,147.0096,116.542,147.0096L110.931,147.0096Q110.14,147.0096,109.708,146.7752Q109.228,146.5742,108.989,146.0383Q108.845,145.7704,108.749,145.402Q108.653,145.0336,108.581,144.5647Q108.533,144.0623,108.497,143.4427Q108.461,142.823,108.461,142.0862L108.461,134.2824Q108.461,133.5456,108.497,132.92599Q108.533,132.30638,108.581,131.80399Q108.725,130.79921,108.989,130.29683Q109.228,129.82793,109.708,129.55999Q109.948,129.45951,110.247,129.39253Q110.547,129.32554,110.931,129.32554L116.542,129.32554Q116.926,129.32554,117.226,129.39253Q117.525,129.45951,117.765,129.55999Q118.245,129.82793,118.484,130.29683Q118.796,130.8662,118.892,131.80399Q118.964,132.30638,118.988,132.92599Q119.012,133.5456,119.012,134.2824L119.012,142.0862Q119.012,142.823,118.988,143.4427Q118.964,144.0623,118.892,144.5647ZM109.716,145.15Q109.636,144.8419,109.574,144.4409Q109.569,144.3942,109.565,144.3469Q109.526,143.9108,109.495,143.3847Q109.461,142.79410000000001,109.461,142.0862L109.461,134.2824Q109.461,133.57458,109.495,132.98396Q109.529,132.39741,109.574,131.92267Q109.58,131.88224,109.586,131.84332Q109.702,131.08906,109.879,130.75213Q109.97,130.57489,110.15,130.46024Q110.163,130.45523,110.177,130.45035000000001Q110.306,130.40418,110.466,130.36845Q110.658,130.32554,110.931,130.32554L116.542,130.32554Q116.815,130.32554,117.007,130.36845Q117.184,130.40796,117.323,130.46024Q117.326,130.46223,117.329,130.46425Q117.505,130.57797,117.594,130.75213L117.601,130.7647L117.607,130.77708Q117.822,131.16908,117.897,131.90573L117.899,131.92579L117.902,131.94576Q117.967,132.39687,117.989,132.96467Q118.012,133.5648,118.012,134.2824L118.012,142.0862Q118.012,142.8038,117.989,143.404Q117.967,143.9718,117.9,144.4421Q117.804,145.21359999999999,117.617,145.5413L117.592,145.5845L117.572,145.6299Q117.493,145.8048,117.379,145.8529L117.332,145.8723L117.288,145.8964Q117.079,146.0096,116.542,146.0096L110.931,146.0096Q110.394,146.0096,110.185,145.8964L110.141,145.8723L110.094,145.8528Q109.98,145.8047,109.901,145.6299L109.887,145.597L109.87,145.5652Q109.782,145.4027,109.716,145.15Z" fill-rule="evenodd" fill="#FFFFFF" fill-opacity="1"/></g><g><path d="M143.36,22.45285C142.67700000000002,21.85583,143.022,20.732898,143.921,20.620445L148.81900000000002,20.00826422C149.446,19.929914,150,20.418652,150,21.05033L150,25.94778C150,26.85005,148.937,27.33227,148.25799999999998,26.738120000000002L143.36,22.45285ZM22,94.1854L22,41.5213C22,40.5416,22.359514,39.596000000000004,23.01036,38.8638L25.00003,36.6255C25.64462,35.9003,26.53079,35.4341,27.49353,35.3138L30,35.0005L136.22,21.723C137.352,21.58145,138.49099999999999,21.930320000000002,139.35,22.6818L148.63400000000001,30.805300000000003C149.502,31.564799999999998,150,32.6621,150,33.8156L150,86.4797C150,87.4594,149.64,88.4049,148.99,89.1371L147,91.3755C146.35500000000002,92.1007,145.469,92.5668,144.506,92.6872L118,96.0005L111.541,96.8079C110.5497,96.9318,109.5479,96.6803,108.7327,96.1029L99.2673,89.3981C98.4521,88.8207,97.4503,88.5692,96.459,88.6931L75.31479999999999,91.3361C74.4611,91.4429,73.6645,91.822,73.0433,92.4173L62.9567,102.0837C62.3355,102.679,61.5389,103.0581,60.6852,103.1648L54,104.0005L38,106.0005L35.7801,106.278C34.6477,106.4195,33.5088,106.0707,32.6499,105.3192L23.36598,97.1957C22.497922,96.4362,22,95.3389,22,94.1854ZM108,46.0005C108,42.686800000000005,110.6863,40.0005,114,40.0005C117.3137,40.0005,120,42.686800000000005,120,46.0005C120,49.3142,117.3137,52.0005,114,52.0005C110.6863,52.0005,108,49.3142,108,46.0005ZM52,51.5316L52,60.0005L43.5039,61.0625C41.5021,61.3127,40,63.0143,40,65.0316L40,68.96940000000001C40,71.3754,42.1087,73.23689999999999,44.4961,72.9385L52,72.0005L52,79.46940000000001C52,81.8754,54.1087,83.73689999999999,56.4961,83.4385L60.4961,82.9385C62.4979,82.6883,64,80.9867,64,78.96940000000001L64,70.5005L72.4961,69.4385C74.4979,69.1883,76,67.4867,76,65.46940000000001L76,61.5316C76,59.1256,73.8913,57.2641,71.5039,57.5625L64,58.5005L64,51.0316C64,48.6256,61.8913,46.7641,59.5039,47.0625L55.5039,47.5625C53.5021,47.8127,52,49.5143,52,51.5316ZM120,57.0005C120,53.6868,122.686,51.0005,126,51.0005C129.314,51.0005,132,53.6868,132,57.0005C132,60.3142,129.314,63.0005,126,63.0005C122.686,63.0005,120,60.3142,120,57.0005ZM102,54.0005C98.6863,54.0005,96,56.6868,96,60.0005C96,63.3142,98.6863,66.0005,102,66.0005C105.3137,66.0005,108,63.3142,108,60.0005C108,56.6868,105.3137,54.0005,102,54.0005ZM114,64.0005C110.6863,64.0005,108,66.6868,108,70.0005C108,73.3142,110.6863,76.0005,114,76.0005C117.3137,76.0005,120,73.3142,120,70.0005C120,66.6868,117.3137,64.0005,114,64.0005ZM22,106.9497L22,102.0522C22,101.1499,23.06285,100.6677,23.74197,101.2619L28.6401,105.5471C29.322499999999998,106.1442,28.97849,107.2671,28.07873,107.3796L23.1806,107.9917C22.553712,108.0701,22,107.5813,22,106.9497Z" fill-rule="evenodd" fill="#FFFFFF" fill-opacity="1"/></g></g></svg>