<svg xmlns="http://www.w3.org/2000/svg" xmlns:xlink="http://www.w3.org/1999/xlink" fill="none" version="1.1" width="18.00094223022461" height="17.998584747314453" viewBox="0 0 18.00094223022461 17.998584747314453"><g><path d="M6.00094,6.84679L6.00094,14.9998C6,16.7908,4.44021,18.1819,2.66079,17.9789C0.881367,17.7758,-0.324878,16.069,0.0777235,14.3238C0.480325,12.5787,2.3124,11.5728,4.00094,12.1698L4.00094,2.99979C4.00117,2.51097,4.35474,2.09395,4.83694,2.01379L16.8369,0.0137858C17.4462,-0.0874995,18.0007,0.382196,18.0009,0.999786L18.0009,13.9998C18,15.7908,16.4402,17.1819,14.6608,16.9789C12.8814,16.7758,11.6751,15.069,12.0777,13.3238C12.4803,11.5787,14.3124,10.5728,16.0009,11.1698L16.0009,5.17979L6.00094,6.84679Z" fill="#FFFFFF" fill-opacity="1" style="mix-blend-mode:passthrough"/></g></svg>