<svg xmlns="http://www.w3.org/2000/svg" xmlns:xlink="http://www.w3.org/1999/xlink" fill="none" version="1.1" width="13.333332061767578" height="10.666666984558105" viewBox="0 0 13.333332061767578 10.666666984558105"><g><path d="M12,3L12,1.33333L1.33333,1.33333L1.33333,9.33333L12,9.33333L12,7.66667L9.33333,7.66667C8.04511,7.66604,7.00114,6.62155,7.00114,5.33333C7.00114,4.04511,8.04511,3.00063,9.33333,3L12,3ZM1.33333,0L12,0C12.7364,0,13.3333,0.596954,13.3333,1.33333L13.3333,9.33333C13.3333,10.0697,12.7364,10.6667,12,10.6667L1.33333,10.6667C0.596953,10.6667,0,10.0697,0,9.33333L0,1.33333C-1.52588e-7,0.596954,0.596954,0,1.33333,0ZM9.33333,4C8.59659,3.99949,7.99908,4.59659,7.99908,5.33333C7.99908,6.07007,8.59659,6.66718,9.33333,6.66667L12,6.66667L12,4L9.33333,4ZM9.33333,6C8.96514,6,8.66667,5.70152,8.66667,5.33333C8.66667,4.96514,8.96514,4.66667,9.33333,4.66667C9.70152,4.66667,10,4.96514,10,5.33333C10,5.70152,9.70152,6,9.33333,6Z" fill="#ECECEC" fill-opacity="1"/></g></svg>