<svg xmlns="http://www.w3.org/2000/svg" xmlns:xlink="http://www.w3.org/1999/xlink" fill="none" version="1.1" width="13.333333015441895" height="13.333332061767578" viewBox="0 0 13.333333015441895 13.333332061767578"><g><path d="M6.66667,13.3333C2.98467,13.3333,0,10.3487,0,6.66667C0,2.98467,2.98467,0,6.66667,0C10.3487,0,13.3333,2.98467,13.3333,6.66667C13.3333,10.3487,10.3487,13.3333,6.66667,13.3333ZM6.66667,12C9.61219,12,12,9.61219,12,6.66667C12,3.72115,9.61219,1.33333,6.66667,1.33333C3.72115,1.33333,1.33333,3.72115,1.33333,6.66667C1.33333,9.61219,3.72115,12,6.66667,12ZM6.66667,10C6.29848,10,6,9.70152,6,9.33333L6,6C6,5.63181,6.29848,5.33333,6.66667,5.33333C7.03486,5.33333,7.33333,5.63181,7.33333,6L7.33333,9.33333C7.33333,9.70152,7.03486,10,6.66667,10ZM6.66667,3.33333C7.03504,3.33308,7.33379,3.63163,7.33379,4C7.33379,4.36837,7.03504,4.66692,6.66667,4.66667C6.29866,4.66641,6.00046,4.36801,6.00046,4C6.00046,3.63199,6.29866,3.33359,6.66667,3.33333Z" fill="#999999" fill-opacity="1"/></g></svg>