<svg xmlns="http://www.w3.org/2000/svg" xmlns:xlink="http://www.w3.org/1999/xlink" fill="none" version="1.1" width="13.355551719665527" height="12.750784873962402" viewBox="0 0 13.355551719665527 12.750784873962402"><g><path d="M12.4714,1.13807C12.5964,1.01305,12.6667,0.843478,12.6667,0.666667C12.6667,0.298477,12.3682,0,12,0C11.8232,0,11.6536,0.0702378,11.5286,0.195262L11.5286,0.195262L6.21213,5.51173Q5.21967,4.82943,3.94954,4.8404Q2.32058,4.85448,1.16817,6.00082Q0.0143374,7.14859,0.000151594,8.77242Q-0.0140346,10.3963,1.1246,11.569Q1.87775,12.3282,2.91188,12.6088Q3.94555,12.8893,4.98111,12.6157Q6.01711,12.342,6.77534,11.5878Q7.53427,10.8329,7.80981,9.80063Q8.08551,8.76793,7.80286,7.73708Q7.60569,7.01796,7.17399,6.43548L8.73525,4.87423L10.1076,6.23934C10.3676,6.49804,10.7878,6.49804,11.0479,6.23935L13.159,4.13935C13.2844,4.01466,13.3551,3.84527,13.3555,3.66846C13.356,3.49165,13.2862,3.3219,13.1615,3.19654C13.1615,3.19654,13.159,3.19405,13.159,3.19405L11.7836,1.82588L12.4714,1.13807L12.4714,1.13807ZM10.8793,2.80703L9.71353,3.9667L10.5777,4.82637L11.7436,3.6667L10.8793,2.80703ZM5.82693,6.91401C5.83249,6.91936,5.83814,6.9246,5.84388,6.92975Q6.3336,7.42083,6.51699,8.08965Q6.70424,8.77257,6.52159,9.45671Q6.33884,10.1413,5.83502,10.6425Q5.33053,11.1443,4.64056,11.3266Q3.95017,11.509,3.26101,11.322Q2.57231,11.1351,2.07123,10.63Q1.32403,9.86035,1.33343,8.78407Q1.34284,7.70774,2.10849,6.94611Q2.87558,6.18306,3.96106,6.17368Q5.04658,6.1643,5.82693,6.91401Z" fill-rule="evenodd" fill="#ECECEC" fill-opacity="1"/></g></svg>