<svg xmlns="http://www.w3.org/2000/svg" xmlns:xlink="http://www.w3.org/1999/xlink" fill="none" version="1.1" width="15.333333969116211" height="9.333333969116211" viewBox="0 0 15.333333969116211 9.333333969116211"><g><path d="M2,2L2,7.33333Q2,8.16176,2.58579,8.74755Q3.17157,9.33333,4,9.33333L11.3333,9.33333Q12.1618,9.33333,12.7475,8.74755Q13.3333,8.16176,13.3333,7.33333L13.3333,2Q13.3333,1.17157,12.7475,0.585786Q12.1618,0,11.3333,0L4,0Q3.17157,0,2.58579,0.585786Q2,1.17157,2,2ZM3.5286,7.80474Q3.33333,7.60948,3.33333,7.33333L3.33333,2Q3.33333,1.72386,3.5286,1.5286Q3.72386,1.33333,4,1.33333L11.3333,1.33333Q11.6095,1.33333,11.8047,1.5286Q12,1.72386,12,2L12,7.33333Q12,7.60948,11.8047,7.80474Q11.6095,8,11.3333,8L4,8Q3.72386,8,3.5286,7.80474ZM0.666667,2.66667C0.298477,2.66667,0,2.96514,0,3.33333L0,6C0,6.36819,0.298477,6.66667,0.666667,6.66667C1.03486,6.66667,1.33333,6.36819,1.33333,6L1.33333,3.33333C1.33333,2.96514,1.03486,2.66667,0.666667,2.66667ZM14.6667,2.66667C14.2985,2.66667,14,2.96514,14,3.33333L14,6C14,6.36819,14.2985,6.66667,14.6667,6.66667C15.0349,6.66667,15.3333,6.36819,15.3333,6L15.3333,3.33333C15.3333,2.96514,15.0349,2.66667,14.6667,2.66667ZM5.33333,3.33333C4.96514,3.33333,4.66667,3.63181,4.66667,4L4.66667,5.33333C4.66667,5.70152,4.96514,6,5.33333,6C5.70152,6,6,5.70152,6,5.33333L6,4C6,3.63181,5.70152,3.33333,5.33333,3.33333ZM10,3.33333C9.63181,3.33333,9.33333,3.63181,9.33333,4L9.33333,5.33333C9.33333,5.70152,9.63181,6,10,6C10.3682,6,10.6667,5.70152,10.6667,5.33333L10.6667,4C10.6667,3.63181,10.3682,3.33333,10,3.33333Z" fill-rule="evenodd" fill="#ECECEC" fill-opacity="1"/></g></svg>