<svg xmlns="http://www.w3.org/2000/svg" xmlns:xlink="http://www.w3.org/1999/xlink" fill="none" version="1.1" width="16" height="16" viewBox="0 0 16 16"><defs><clipPath id="master_svg0_3136_7741"><rect x="0" y="0" width="16" height="16" rx="0"/></clipPath></defs><g clip-path="url(#master_svg0_3136_7741)"><g><rect x="0" y="0" width="16" height="16" rx="0" fill="#FFFFFF" fill-opacity="0.009999999776482582" style="mix-blend-mode:passthrough"/></g><g><path d="M2.04261,8.2726194140625Q2.60946,9.7451394140625,4.31841,10.8363994140625Q2.8078700000000003,11.4595094140625,1.791514,11.2658094140625C1.429834,11.1968794140625,1.080756,11.4341994140625,1.0118268,11.7958494140625C0.9578745,12.0789494140625,1.0919344,12.3646494140625,1.344144,12.5041494140625Q1.358369,12.5119494140625,1.394182,12.5319494140625Q7.06084,15.6845494140625,10.62659,13.4566494140625Q14.0949,11.2896794140625,14.0677,5.8693794140625Q14.0675,5.8326294140625,14.0674,5.7988794140625Q14.1266,5.7026294140625,14.2252,5.5619994140625Q15,4.4570994140625,15,2.9812194140625C15,2.6130324140625,14.7016,2.3145554140625,14.3334,2.3145554140625C14.1657,2.3145554140625,14.0042,2.3777414140625,13.881,2.4915184140625Q13.342,2.9894194140624997,12.8684,2.9638194140625Q11.7672,1.5014914140625,9.92654,1.6864078140625Q7.16353,1.9639834140625,7.30804,5.6412394140625Q5.1694,6.3754894140625,3.23302,3.2191994140625C3.14056,3.0684894140625003,2.99201,2.9606894140625,2.8200700000000003,2.9194994140625C2.64812,2.8783094140625,2.46685,2.9071094140625,2.31615,2.9995694140625C2.16928,3.0896794140625,2.0629999999999997,3.2331494140625,2.0196,3.3998994140625003Q1.272211,6.2713394140625,2.04261,8.2726194140625ZM6.09284,11.4609394140625Q5.01496,12.0451494140625,4.07358,12.3407494140625Q7.64037,13.7502494140625,9.92009,12.3259494140625Q12.7578,10.5528694140625,12.7344,5.8760594140625Q12.7336,5.7074394140625,12.7336,5.6286194140625C12.7336,5.5292394140625,12.7558,5.4311194140625005,12.7986,5.3414394140625Q12.8992,5.1307594140625,13.1336,4.7964794140625Q13.3144,4.5386194140625005,13.4339,4.2468694140625Q12.8682,4.3800694140625005,12.2875,4.2065894140625C12.137,4.1616094140625,12.0071,4.0648694140625,11.9209,3.9334494140625Q11.2395,2.8945494140625003,10.05981,3.0130594140625Q8.426449999999999,3.1771494140625,8.66695,6.0125094140625C8.68993,6.2833894140625,8.54613,6.5410994140625,8.303519999999999,6.6637794140625Q5.42385,8.1200294140625,3.02797,5.2327694140625Q2.86952,6.7093094140625,3.28693,7.7936194140625Q3.83783,9.2246794140625,6.0594,10.2717794140625C6.39245,10.4287594140625,6.53519,10.8259994140625,6.37821,11.1590494140625C6.31767,11.2875094140625,6.21769,11.3932694140625,6.09284,11.4609394140625Z" fill-rule="evenodd" fill="#1E1E1E" fill-opacity="1"/></g></g></svg>