<svg width="20" height="20" viewBox="0 0 20 20" fill="none" xmlns="http://www.w3.org/2000/svg">
<path d="M13.0302 8.03066C13.3231 7.73776 13.3231 7.26289 13.0302 6.97C12.7373 6.6771 12.2624 6.6771 11.9695 6.97L13.0302 8.03066ZM6.96951 11.97C6.67661 12.2629 6.67661 12.7378 6.96951 13.0307C7.2624 13.3235 7.73727 13.3235 8.03017 13.0307L6.96951 11.97ZM8.03017 6.97C7.73727 6.6771 7.2624 6.6771 6.96951 6.97C6.67661 7.26289 6.67661 7.73776 6.96951 8.03066L8.03017 6.97ZM11.9695 13.0307C12.2624 13.3235 12.7373 13.3235 13.0302 13.0307C13.3231 12.7378 13.3231 12.2629 13.0302 11.97L11.9695 13.0307ZM17.5832 10.0003C17.5832 14.1885 14.188 17.5837 9.99984 17.5837V19.0837C15.0164 19.0837 19.0832 15.0169 19.0832 10.0003H17.5832ZM9.99984 17.5837C5.81168 17.5837 2.4165 14.1885 2.4165 10.0003H0.916504C0.916504 15.0169 4.98325 19.0837 9.99984 19.0837V17.5837ZM2.4165 10.0003C2.4165 5.81217 5.81168 2.41699 9.99984 2.41699V0.916992C4.98325 0.916992 0.916504 4.98374 0.916504 10.0003H2.4165ZM9.99984 2.41699C14.188 2.41699 17.5832 5.81217 17.5832 10.0003H19.0832C19.0832 4.98374 15.0164 0.916992 9.99984 0.916992V2.41699ZM11.9695 6.97L6.96951 11.97L8.03017 13.0307L13.0302 8.03066L11.9695 6.97ZM6.96951 8.03066L11.9695 13.0307L13.0302 11.97L8.03017 6.97L6.96951 8.03066Z" fill="white"/>
</svg>
