<svg width="20" height="20" viewBox="0 0 20 20" fill="none" xmlns="http://www.w3.org/2000/svg">
<path d="M9.24984 13.3337C9.24984 13.7479 9.58562 14.0837 9.99984 14.0837C10.4141 14.0837 10.7498 13.7479 10.7498 13.3337H9.24984ZM10.7498 10.0003C10.7498 9.58611 10.4141 9.25033 9.99984 9.25033C9.58562 9.25033 9.24984 9.58611 9.24984 10.0003H10.7498ZM9.99984 5.91699C9.58562 5.91699 9.24984 6.25278 9.24984 6.66699C9.24984 7.08121 9.58562 7.41699 9.99984 7.41699V5.91699ZM10.0082 7.41699C10.4224 7.41699 10.7582 7.08121 10.7582 6.66699C10.7582 6.25278 10.4224 5.91699 10.0082 5.91699V7.41699ZM17.5832 10.0003C17.5832 14.1885 14.188 17.5837 9.99984 17.5837V19.0837C15.0164 19.0837 19.0832 15.0169 19.0832 10.0003H17.5832ZM9.99984 17.5837C5.81168 17.5837 2.4165 14.1885 2.4165 10.0003H0.916504C0.916504 15.0169 4.98325 19.0837 9.99984 19.0837V17.5837ZM2.4165 10.0003C2.4165 5.81217 5.81168 2.41699 9.99984 2.41699V0.916992C4.98325 0.916992 0.916504 4.98374 0.916504 10.0003H2.4165ZM9.99984 2.41699C14.188 2.41699 17.5832 5.81217 17.5832 10.0003H19.0832C19.0832 4.98374 15.0164 0.916992 9.99984 0.916992V2.41699ZM10.7498 13.3337V10.0003H9.24984V13.3337H10.7498ZM9.99984 7.41699H10.0082V5.91699H9.99984V7.41699Z" fill="white"/>
</svg>
